<?xml version="1.0" encoding="utf-8"?>
<!-- Generator: Adobe Illustrator 19.0.0, SVG Export Plug-In . SVG Version: 6.00 Build 0)  -->
<svg version="1.1" id="Layer_1" xmlns="http://www.w3.org/2000/svg" xmlns:xlink="http://www.w3.org/1999/xlink" x="0px" y="0px"
	 viewBox="-245 385 120 24" style="enable-background:new -245 385 120 24;" xml:space="preserve">
<style type="text/css">
	.st0{display:none;clip-path:url(#SVGID_2_);}
	.st1{display:inline;fill:#757693;}
</style>
<g>
	<defs>
		<rect id="SVGID_1_" x="-245" y="385" width="119.6" height="23.4"/>
	</defs>
	<clipPath id="SVGID_2_">
		<use xlink:href="#SVGID_1_"  style="overflow:visible;"/>
	</clipPath>
	<g class="st0">
		<path class="st1" d="M-241.4,387.2c0.9-0.8,1.9-1.4,3.1-1.7s2.3-0.5,3.5-0.4c1.2,0.1,2.3,0.4,3.4,0.9s2,1.3,2.8,2.2
			c1.7,1.7,2.6,3.9,2.7,6.3c0.1,2.4-0.7,4.7-2.2,6.4l-7.1,7.1c-1.4-0.9-3.8-2.8-2.8-4.7c1.9-2.4,4.2-4.2,6.1-6.6
			c1.4-1.9,0.5-5.6-2.4-6.1c-0.6-0.2-1.3-0.3-2-0.2s-1.3,0.4-1.8,0.8c-0.5,0.4-0.9,1-1.2,1.6c-0.2,0.6-0.3,1.3-0.2,2
			c0,2.4,1.9,3.8,3.3,5.2c-1.4,1.4-3.3,2.4-3.3,4.2c-1.4-1.9-3.8-3.3-4.7-5.6c-0.9-1.9-1-4.1-0.5-6.1S-243,388.5-241.4,387.2z"/>
		<path class="st1" d="M-211.2,387.2c0.5-1.4,1.9-0.9,2.8-0.9v17.4h-2.8v-1.4c-1.1,0.9-2.5,1.4-4,1.4c-1.5,0-2.9-0.5-4-1.4
			c-1.3-1.2-2.1-2.8-2.2-4.6c-0.1-1.8,0.5-3.5,1.7-4.8c1.1-1.2,2.5-1.9,4.1-2.1c1.6-0.2,3.1,0.2,4.4,1.1V387.2z M-215.5,393.3
			c-2.4,0.5-4.2,3.8-2.4,6.1c0.4,0.5,0.8,0.9,1.4,1.2c0.6,0.3,1.2,0.4,1.8,0.3c0.6,0,1.2-0.3,1.7-0.6c0.5-0.4,0.9-0.8,1.2-1.4
			C-210.3,396.6-212.6,393.3-215.5,393.3L-215.5,393.3z"/>
		<path class="st1" d="M-206.1,391h2.8v0.9c0.9-1.4,2.8-1.4,4.7-0.9c-0.5,0.9-0.9,1.4-0.9,2.4c-1.9-0.5-3.8,0.5-3.8,1.9v7.1
			c-0.5,1.4-1.9,1.4-2.8,1.4V391z"/>
		<path class="st1" d="M-194.3,391c4.7-1.9,9.4,2.8,8.5,7.5c-0.9,4.7-7.5,7.1-10.8,3.8C-200.4,399-199,391.9-194.3,391L-194.3,391z
			 M-192.9,393.3c-0.8,0.2-1.5,0.6-2.1,1.2c-0.6,0.6-1,1.3-1.2,2.1c-0.1,1,0.2,2,0.8,2.8c0.6,0.8,1.5,1.3,2.5,1.4
			c1,0.1,2-0.1,2.8-0.8c0.8-0.6,1.3-1.5,1.4-2.5C-188.6,395.2-191,392.8-192.9,393.3L-192.9,393.3z"/>
		<path class="st1" d="M-183.9,391h2.8v0.9c1.3-0.9,2.9-1.3,4.4-1.1c1.6,0.2,3,0.9,4.1,2.1c0.6,0.6,1,1.3,1.3,2.1
			c0.3,0.8,0.4,1.6,0.4,2.5c0,0.8-0.3,1.7-0.6,2.4c-0.4,0.8-0.9,1.4-1.5,2c-1.9,2.4-5.6,2.4-8,0.9v4.2c-0.5,1.4-1.9,1.4-2.8,1.4
			L-183.9,391L-183.9,391z M-177.8,393.3c-2.8,0.5-4.2,3.8-2.8,5.6c1.4,2.4,5.2,2.4,6.1,0C-172.6,396.6-175,393.3-177.8,393.3
			L-177.8,393.3z"/>
		<path class="st1" d="M-166.1,391.4c1.2-0.7,2.6-0.9,3.9-0.8c1.4,0.2,2.6,0.8,3.6,1.7c-0.5,0.5-0.9,1.4-1.9,1.9
			c-0.4-0.4-1-0.6-1.5-0.7c-0.6-0.1-1.1-0.1-1.7,0c-0.5,0.1-1.1,0.4-1.5,0.8c-0.4,0.4-0.8,0.8-1,1.4c-0.2,0.6-0.3,1.2-0.2,1.7
			c0.1,0.6,0.3,1.2,0.6,1.7c0.3,0.5,0.7,0.9,1.3,1.2c0.5,0.3,1.1,0.5,1.7,0.5c0.9,0,1.9-0.5,2.8-0.5c0.8,0.4,1.5,1,1.9,1.9
			c-3.3,2.8-8.9,1.9-10.4-2.4C-170.3,397.1-168.9,393.3-166.1,391.4z"/>
		<path class="st1" d="M-158.1,399.4c-1.4-4.2,1.9-8.9,6.1-8.9c1.7,0.1,3.3,0.7,4.6,1.8c1.3,1.1,2.2,2.6,2.5,4.3v7.1
			c-1.4,0-2.4,0-3.3-0.9C-151.5,405.1-156.6,403.2-158.1,399.4L-158.1,399.4z M-151.9,393.3c-0.6,0.1-1.3,0.4-1.8,0.8
			c-0.5,0.4-0.9,0.9-1.2,1.5c-0.3,0.6-0.4,1.3-0.4,1.9c0,0.7,0.2,1.3,0.5,1.9c1.9,2.4,5.6,1.9,6.6-0.5c0.2-0.6,0.3-1.3,0.3-2
			c-0.1-0.7-0.3-1.3-0.7-1.9c-0.4-0.6-0.9-1-1.4-1.3C-150.6,393.5-151.3,393.3-151.9,393.3z"/>
		<path class="st1" d="M-143,391h2.8v0.9c1.4-1.9,4.7-1.4,6.6,0.5c2.4-2.8,7.1-1.9,8,1.4c0.5,2.8,0,6.1,0,8.9c0,0.9-1.4,0.9-2.8,0.9
			c0-2.8,0.5-5.6,0-8.5c-0.1-0.5-0.4-0.9-0.7-1.3c-0.4-0.3-0.9-0.5-1.4-0.5c-0.5,0-1,0.2-1.4,0.5c-0.4,0.3-0.6,0.8-0.7,1.3v8.5h-2.8
			c0.1-3-0.1-6-0.5-8.9c-0.5-1.9-3.8-1.4-3.8,0.5c-0.4,2.8-0.5,5.6-0.5,8.5h-2.8V391z"/>
	</g>
</g>
<g>
	<path d="M-230,394.6l1.4-1.2l0.3,3.1c0,0.4,0.1,0.7,0.3,0.9c0.1,0.1,0.3,0.2,0.5,0.2h0.7v4.8h-0.9c-0.5-0.1-0.9-0.3-1.2-0.7
		c-0.2-0.3-0.3-0.6-0.3-1c0-0.4-0.1-0.6-0.1-0.6c-0.1,0.1-0.3,0.4-0.8,0.9c-0.3,0.4-0.5,0.6-0.6,0.5c-0.3-0.1-0.7-0.3-1.1-0.6
		c-0.5-0.3-0.9-0.5-1.4-0.8c0,0,0,0,0-0.1c0,0,0,0,0-0.1c0-0.1,0-0.4,0.1-0.8c0-0.1,0.1-0.4,0.2-1.1c0.1-0.4,0.1-0.7,0.2-0.9
		c0.5-0.5,0.9-0.9,1.2-1.1c0.3-0.2,0.8-0.5,1.5-0.9L-230,394.6z M-230.6,391.2l0.9-1l1.1,1l-1.1,1.1l-1.1-0.9l-0.9,0.9l-1.1-1l1-1.2
		L-230.6,391.2z M-229.8,396.8c-0.3,0.1-0.6,0.2-1,0.4c-0.2,0.1-0.5,0.3-0.7,0.5c0.2,0.1,0.5,0.2,0.8,0.3c0.2,0.1,0.5,0.3,0.7,0.4
		l0.4-0.4L-229.8,396.8z"/>
	<path d="M-223.4,397.5c-0.1-0.3-0.2-0.7-0.4-1c-0.2-0.3-0.4-0.6-0.7-0.9l1.9-1.8c0.5,1.5,0.8,2.7,0.8,3.7v4.8h-5.9v-4.8H-223.4z
		 M-224.6,404.5l0.9-1l1.1,1l-1.1,1.1l-1.1-0.9l-0.9,0.9l-1.1-1l1-1.2L-224.6,404.5z"/>
	<path d="M-214.9,402c-0.2,0.2-0.5,0.3-0.9,0.3c-0.3,0.1-0.8,0.1-1.4,0.1c-0.3,0-0.7,0-1.3,0s-0.9,0-1.1,0c-0.2,0-0.5-0.1-0.6-0.2
		c-0.2-0.2-0.3-0.4-0.3-0.7c0-0.3-0.1-0.6-0.1-1.1c0-0.4,0-0.8,0-1.2c0-0.4,0-0.8,0-1.4c0-0.1,0-0.2,0-0.2c0,0,0.1-0.1,0.1-0.1
		c0,0,0.1,0,0.2,0.1c0.1,0,0.1,0.1,0.2,0.1c0.3,0.1,0.5,0.1,0.8,0.2c0.3,0,0.6,0.1,0.9,0.1c0.4,0,0.8,0,1.2-0.1
		c0.3,0,0.6-0.1,0.8-0.2c-0.1-0.4-0.3-0.9-0.6-1.4s-0.5-0.8-0.6-0.8l-0.1,0c-0.1,0.1-0.2,0.2-0.3,0.2s-0.2,0.1-0.2,0.1
		c-0.1,0-0.2-0.1-0.2-0.3c0-0.1,0-0.1,0-0.2c0.1-0.4,0.2-0.6,0.2-0.6c0.1-0.2,0.2-0.4,0.3-0.6c0.1-0.2,0.2-0.4,0.4-0.5
		c0.2-0.2,0.4-0.4,0.6-0.4c0.2,0,0.3,0.1,0.5,0.3c0.5,0.6,0.9,1.3,1.2,2.1c0.3,0.7,0.5,1.4,0.5,2.1c0,0.3,0,0.6,0,0.8
		c0,0.9,0,1.4,0,1.4c0,0.5,0,0.9-0.1,1.2C-214.7,401.5-214.7,401.8-214.9,402z"/>
	<path d="M-207.8,397.5h0.9v4.8h-1.1c-0.2,0.6-0.4,1.2-0.6,1.6c-0.3,0.5-0.6,0.9-1,1.2c-0.4,0.3-1,0.5-1.5,0.5c-0.1,0-0.2,0-0.3,0
		c-0.1,0-0.2,0-0.3-0.1c-0.3-0.1-0.6-0.2-1-0.4c-0.3-0.2-0.6-0.4-1-0.6c-0.3-0.2-0.6-0.4-0.9-0.6c-0.1-0.1-0.2-0.2-0.2-0.3
		c0-0.1,0.1-0.2,0.3-0.2c0,0,0.1,0,0.1,0s0.1,0,0.2,0c0.2,0,0.4,0.1,0.6,0.1s0.4,0,0.6,0c0.7,0,1.4-0.1,2-0.4c0.5-0.3,1-0.6,1.3-1
		c0.3-0.4,0.5-0.8,0.6-1.2c-0.3,0.4-0.6,0.8-0.9,1c-0.3,0.2-0.6,0.3-0.9,0.3c-0.6,0-1.1-0.3-1.6-0.8c-0.5-0.5-0.7-0.9-0.8-1.4v-0.2
		c0-0.6,0.2-1.4,0.5-2.5c0.3-1,0.7-1.9,1.2-2.7c0.5-0.9,1-1.3,1.5-1.3c0.5,0,1,0.4,1.4,1.2C-208.3,395.4-208,396.4-207.8,397.5z
		 M-211.2,396.3c0,0.3,0.2,0.6,0.5,0.8c0.4,0.3,0.8,0.4,1.3,0.4h0.1c0.1,0,0.2,0,0.3,0c-0.1-0.5-0.4-0.9-0.7-1.3
		c-0.3-0.3-0.6-0.5-0.9-0.5c-0.1,0-0.3,0.1-0.4,0.2C-211.1,396-211.2,396.2-211.2,396.3z"/>
	<path d="M-205.3,396.6c0-0.1,0-0.2,0-0.4c0-0.1,0-0.3,0-0.4c0-0.2,0-0.4,0-0.5c0-0.1,0.1-0.2,0.1-0.2c0.3-0.3,0.7-0.5,1.1-0.7
		c0.4-0.2,0.9-0.2,1.3-0.2c0.7,0,1.3,0.2,1.9,0.5c0.6,0.3,1.1,0.8,1.4,1.5c0,0.1,0,0.1,0,0.2c0,0,0,0.1,0,0.1s-0.1,0-0.1,0.1
		c-0.2,0.1-0.4,0.2-0.6,0.4c-0.2,0.2-0.4,0.4-0.7,0.7h2.3v4.8h-1.9c-0.8,0-1.3-0.1-1.7-0.2c-0.3-0.1-0.6-0.4-0.7-0.7
		c-0.1,0.2-0.2,0.4-0.4,0.5c-0.2,0.2-0.6,0.3-1,0.4h-3.3v-4.8h3.9c-0.2-0.1-0.3-0.3-0.5-0.4c-0.2-0.2-0.4-0.3-0.6-0.4
		C-204.8,396.7-205.1,396.6-205.3,396.6z M-203.5,396c0.2,0.1,0.5,0.3,0.7,0.5c0.1,0.1,0.3,0.3,0.5,0.6c0.1-0.1,0.3-0.3,0.5-0.5
		c0.2-0.1,0.3-0.3,0.4-0.3c-0.2-0.1-0.4-0.2-0.6-0.3c-0.2-0.1-0.5-0.1-0.7-0.1c-0.1,0-0.3,0-0.4,0C-203.3,395.9-203.4,396-203.5,396
		z"/>
	<path d="M-194.7,396.4c0.1,0.4,0.3,0.7,0.6,0.9c0.3,0.2,0.5,0.3,0.8,0.3c0.2,0,0.5-0.1,0.7-0.3c0.3-0.2,0.5-0.6,0.6-1
		c0-0.1,0.1-0.1,0.1-0.1c0.1,0,0.1,0.1,0.1,0.2c0.1,0.4,0.3,0.7,0.7,1s0.8,0.4,1.2,0.4c-0.1-0.3-0.1-0.5-0.2-0.8
		c-0.1-0.3-0.3-0.6-0.6-0.9l1.7-1.6c0.2,0.5,0.3,0.9,0.4,1c0.1,0.3,0.2,0.6,0.2,1s0.1,0.7,0.1,1v4.8h-2.1c-0.3,0-0.5-0.1-0.7-0.2
		c-0.1-0.1-0.3-0.2-0.6-0.4c-0.2,0.2-0.3,0.3-0.5,0.4c-0.3,0.1-0.6,0.2-1,0.2c-0.3,0-0.6,0-0.8-0.1c-0.3-0.1-0.5-0.2-0.7-0.5
		c-0.2,0.2-0.3,0.3-0.4,0.3c-0.2,0.2-0.5,0.2-1,0.2h-3.8v-4.8h3.1c0.3,0,0.7-0.1,0.9-0.3c0.2-0.2,0.4-0.4,0.5-0.7
		c0.1-0.2,0.1-0.3,0.2-0.3C-194.8,396.2-194.8,396.3-194.7,396.4z"/>
	<path d="M-183.4,393.7c0,0.7,0,1.6,0.1,2.5c0,0,0,0.8,0.1,2.2c0.1,0.9,0.1,1.6,0.1,2c0,0.2,0,0.6-0.1,1.2c0,0.3,0,0.5,0,0.7h-5.3
		v-4.8h3.6l-0.7-5.4l2.1-1.7c0,0.5,0,1,0.1,1.4c0.1,0.5,0.3,1,0.5,1.4L-183.4,393.7z"/>
	<path d="M-179.1,399.2c0,0.2,0,0.5-0.1,1c-0.1,0.6-0.2,1-0.3,1.2c-0.1,0.2-0.2,0.4-0.5,0.7c-0.3,0.3-0.6,0.7-1,1.1l-0.6-11.2
		l2.2-1.7L-179.1,399.2z"/>
	<path d="M-174.9,401.4c-0.1-0.7-0.3-1.4-0.4-2.1c-0.1-0.7-0.2-1.4-0.2-2c0-0.1,0-0.1,0.1-0.1c0.2,0.1,0.4,0.2,0.5,0.3
		c0.1,0.1,0.2,0.1,0.3,0.1c0.1,0,0.1,0,0.2-0.1c0.2-0.2,0.4-0.4,0.5-0.4c0.2-0.1,0.3-0.3,0.5-0.4l-0.8-5.2l1.9-1.3
		c0,0.5,0.1,0.9,0.2,1.2c0.1,0.4,0.3,0.8,0.6,1.1l-0.5,0.7c0,0.3,0.1,0.5,0.1,0.8s0,0.5,0,0.7c0,0.2,0,0.4,0,0.6
		c0,0.2-0.1,0.3-0.2,0.5c0.3-0.2,0.7-0.4,1.1-0.7c0.5-0.3,1-0.5,1.4-0.7c0.5-0.2,1-0.4,1.3-0.4c0.1,0,0.2,0,0.3,0h0.1
		c0.6,0,1.1,0.2,1.5,0.7c0.3,0.3,0.5,0.8,0.7,1.3c0.1,0.4,0.2,0.7,0.2,0.9c0,0.5,0,1.1-0.1,1.7c-0.1,0.6-0.2,1.2-0.3,1.8
		c-0.1,0.4-0.2,1-0.4,1.7c0,0.1-0.1,0.1-0.2,0.2c-0.1,0.1-0.2,0.1-0.3,0.1h-6.9c-0.4,0-0.7-0.1-0.9-0.2
		C-174.6,402-174.8,401.8-174.9,401.4z M-172.1,397.5h4.4c0-0.4-0.2-0.8-0.4-1c-0.3-0.3-0.6-0.5-1-0.5c-0.4,0-0.8,0.1-1.2,0.3
		C-170.9,396.6-171.5,397-172.1,397.5z"/>
	<path d="M-159,397.5h0.9v4.8h-1.1c-0.2,0.6-0.4,1.2-0.6,1.6c-0.3,0.5-0.6,0.9-1,1.2c-0.4,0.3-1,0.5-1.5,0.5c-0.1,0-0.2,0-0.3,0
		c-0.1,0-0.2,0-0.3-0.1c-0.3-0.1-0.6-0.2-1-0.4c-0.3-0.2-0.6-0.4-1-0.6c-0.3-0.2-0.6-0.4-0.9-0.6c-0.2-0.1-0.2-0.2-0.2-0.3
		c0-0.1,0.1-0.2,0.3-0.2c0,0,0.1,0,0.1,0c0,0,0.1,0,0.2,0c0.2,0,0.4,0.1,0.6,0.1s0.4,0,0.6,0c0.7,0,1.4-0.1,2-0.4
		c0.5-0.3,1-0.6,1.3-1c0.3-0.4,0.5-0.8,0.6-1.2c-0.3,0.4-0.6,0.8-0.9,1c-0.3,0.2-0.6,0.3-0.9,0.3c-0.6,0-1.1-0.3-1.6-0.8
		c-0.5-0.5-0.7-0.9-0.8-1.4v-0.2c0-0.6,0.2-1.4,0.5-2.5c0.3-1,0.7-1.9,1.2-2.7c0.5-0.9,1-1.3,1.5-1.3c0.5,0,1,0.4,1.4,1.2
		C-159.5,395.4-159.2,396.4-159,397.5z M-162.3,396.3c0,0.3,0.2,0.6,0.5,0.8c0.4,0.3,0.8,0.4,1.3,0.4h0.1c0.1,0,0.2,0,0.3,0
		c-0.1-0.5-0.4-0.9-0.7-1.3c-0.3-0.3-0.6-0.5-0.9-0.5c-0.1,0-0.3,0.1-0.4,0.2C-162.3,396-162.3,396.2-162.3,396.3z"/>
	<path d="M-158.7,402.3v-4.8h1.5c0.1,0,0.3-0.2,0.6-0.5c0.1-0.1,0.2-0.2,0.4-0.3l-0.8-5.2l1.9-1.3c0,0.4,0.1,0.8,0.2,1.2
		c0.1,0.4,0.3,0.7,0.6,1.1l-0.4,0.7c0,0.1,0,0.3,0.1,0.5c0.1,0.4,0.1,0.7,0.1,0.9c0,0.2,0,0.4,0,0.5c0,0.2-0.1,0.3-0.1,0.5
		c0.3-0.2,0.7-0.4,1.1-0.7c0.5-0.3,1-0.5,1.4-0.7c0.5-0.2,0.9-0.3,1.3-0.4c0.1,0,0.1,0,0.2,0s0.1,0,0.2,0c0.6,0,1.1,0.2,1.6,0.7
		c0.3,0.3,0.5,0.8,0.7,1.3c0.1,0.4,0.2,0.7,0.2,0.9c0,0.7-0.1,1.6-0.3,2.6c-0.1,0.9-0.3,1.7-0.6,2.6c0,0.1-0.1,0.1-0.1,0.2
		c-0.1,0-0.2,0.1-0.3,0.1H-158.7z M-154.9,397.5h4.4c0-0.4-0.2-0.7-0.4-1c-0.3-0.3-0.6-0.5-1.1-0.5c-0.4,0-0.8,0.1-1.2,0.3
		C-153.7,396.6-154.3,397-154.9,397.5z"/>
	<path d="M-138.8,397.5l-0.7-5.4l2.1-1.7c0,0.5,0,1,0.1,1.4c0.1,0.5,0.3,1,0.5,1.4l-0.4,0.4c0,0.7,0,1.6,0.1,2.5c0,0,0,0.8,0.1,2.2
		c0.1,0.9,0.1,1.6,0.1,2c0,0.2,0,0.6-0.1,1.2c0,0.3,0,0.5,0,0.7h-12.5v-4.8h6.5c-0.3-0.3-0.6-0.5-0.9-0.7c-0.4-0.2-0.7-0.4-1-0.5
		c-0.4-0.1-0.7-0.2-0.9-0.2c-0.3,0-0.6,0.1-0.8,0.4c-0.2,0.2-0.3,0.3-0.4,0.3c-0.1,0-0.1,0-0.1-0.1v0c0-0.4,0.1-0.7,0.2-1.1
		c0.1-0.5,0.3-0.8,0.5-1.1c0.3-0.4,0.6-0.6,0.9-0.6c0.1,0,0.1,0,0.2,0s0.1,0,0.2,0h0.1c0.7,0,1.3,0.3,1.9,1c0.5,0.6,1,1.2,1.5,1.9
		c0.6,0.7,1.3,1,2,1c0.1,0,0.2,0,0.3,0c0.1,0,0.3,0,0.4,0C-138.9,397.6-138.8,397.6-138.8,397.5z M-144,391.3l-1.2,1.4l-1.4-1.2
		l1.3-1.3L-144,391.3z"/>
	<path d="M-133.1,399.2c0,0.2,0,0.5-0.1,1c-0.1,0.6-0.2,1-0.3,1.2c-0.1,0.2-0.2,0.4-0.5,0.7c-0.3,0.3-0.6,0.7-1,1.1l-0.6-11.2
		l2.2-1.7L-133.1,399.2z"/>
</g>
<g>
	<path d="M-230,394.6l1.4-1.2l0.3,3.1c0,0.4,0.1,0.7,0.3,0.9c0.1,0.1,0.3,0.2,0.5,0.2h0.7v4.8h-0.9c-0.5-0.1-0.9-0.3-1.2-0.7
		c-0.2-0.3-0.3-0.6-0.3-1c0-0.4-0.1-0.6-0.1-0.6c-0.1,0.1-0.3,0.4-0.8,0.9c-0.3,0.4-0.5,0.6-0.6,0.5c-0.3-0.1-0.7-0.3-1.1-0.6
		c-0.5-0.3-0.9-0.5-1.4-0.8c0,0,0,0,0-0.1c0,0,0,0,0-0.1c0-0.1,0-0.4,0.1-0.8c0-0.1,0.1-0.4,0.2-1.1c0.1-0.4,0.1-0.7,0.2-0.9
		c0.5-0.5,0.9-0.9,1.2-1.1c0.3-0.2,0.8-0.5,1.5-0.9L-230,394.6z M-230.6,391.2l0.9-1l1.1,1l-1.1,1.1l-1.1-0.9l-0.9,0.9l-1.1-1l1-1.2
		L-230.6,391.2z M-229.8,396.8c-0.3,0.1-0.6,0.2-1,0.4c-0.2,0.1-0.5,0.3-0.7,0.5c0.2,0.1,0.5,0.2,0.8,0.3c0.2,0.1,0.5,0.3,0.7,0.4
		l0.4-0.4L-229.8,396.8z"/>
	<path d="M-223.4,397.5c-0.1-0.3-0.2-0.7-0.4-1c-0.2-0.3-0.4-0.6-0.7-0.9l1.9-1.8c0.5,1.5,0.8,2.7,0.8,3.7v4.8h-5.9v-4.8H-223.4z
		 M-224.6,404.5l0.9-1l1.1,1l-1.1,1.1l-1.1-0.9l-0.9,0.9l-1.1-1l1-1.2L-224.6,404.5z"/>
	<path d="M-214.9,402c-0.2,0.2-0.5,0.3-0.9,0.3c-0.3,0.1-0.8,0.1-1.4,0.1c-0.3,0-0.7,0-1.3,0s-0.9,0-1.1,0c-0.2,0-0.5-0.1-0.6-0.2
		c-0.2-0.2-0.3-0.4-0.3-0.7c0-0.3-0.1-0.6-0.1-1.1c0-0.4,0-0.8,0-1.2c0-0.4,0-0.8,0-1.4c0-0.1,0-0.2,0-0.2c0,0,0.1-0.1,0.1-0.1
		c0,0,0.1,0,0.2,0.1c0.1,0,0.1,0.1,0.2,0.1c0.3,0.1,0.5,0.1,0.8,0.2c0.3,0,0.6,0.1,0.9,0.1c0.4,0,0.8,0,1.2-0.1
		c0.3,0,0.6-0.1,0.8-0.2c-0.1-0.4-0.3-0.9-0.6-1.4s-0.5-0.8-0.6-0.8l-0.1,0c-0.1,0.1-0.2,0.2-0.3,0.2s-0.2,0.1-0.2,0.1
		c-0.1,0-0.2-0.1-0.2-0.3c0-0.1,0-0.1,0-0.2c0.1-0.4,0.2-0.6,0.2-0.6c0.1-0.2,0.2-0.4,0.3-0.6c0.1-0.2,0.2-0.4,0.4-0.5
		c0.2-0.2,0.4-0.4,0.6-0.4c0.2,0,0.3,0.1,0.5,0.3c0.5,0.6,0.9,1.3,1.2,2.1c0.3,0.7,0.5,1.4,0.5,2.1c0,0.3,0,0.6,0,0.8
		c0,0.9,0,1.4,0,1.4c0,0.5,0,0.9-0.1,1.2C-214.7,401.5-214.7,401.8-214.9,402z"/>
	<path d="M-207.8,397.5h0.9v4.8h-1.1c-0.2,0.6-0.4,1.2-0.6,1.6c-0.3,0.5-0.6,0.9-1,1.2c-0.4,0.3-1,0.5-1.5,0.5c-0.1,0-0.2,0-0.3,0
		c-0.1,0-0.2,0-0.3-0.1c-0.3-0.1-0.6-0.2-1-0.4c-0.3-0.2-0.6-0.4-1-0.6c-0.3-0.2-0.6-0.4-0.9-0.6c-0.1-0.1-0.2-0.2-0.2-0.3
		c0-0.1,0.1-0.2,0.3-0.2c0,0,0.1,0,0.1,0s0.1,0,0.2,0c0.2,0,0.4,0.1,0.6,0.1s0.4,0,0.6,0c0.7,0,1.4-0.1,2-0.4c0.5-0.3,1-0.6,1.3-1
		c0.3-0.4,0.5-0.8,0.6-1.2c-0.3,0.4-0.6,0.8-0.9,1c-0.3,0.2-0.6,0.3-0.9,0.3c-0.6,0-1.1-0.3-1.6-0.8c-0.5-0.5-0.7-0.9-0.8-1.4v-0.2
		c0-0.6,0.2-1.4,0.5-2.5c0.3-1,0.7-1.9,1.2-2.7c0.5-0.9,1-1.3,1.5-1.3c0.5,0,1,0.4,1.4,1.2C-208.3,395.4-208,396.4-207.8,397.5z
		 M-211.2,396.3c0,0.3,0.2,0.6,0.5,0.8c0.4,0.3,0.8,0.4,1.3,0.4h0.1c0.1,0,0.2,0,0.3,0c-0.1-0.5-0.4-0.9-0.7-1.3
		c-0.3-0.3-0.6-0.5-0.9-0.5c-0.1,0-0.3,0.1-0.4,0.2C-211.1,396-211.2,396.2-211.2,396.3z"/>
	<path d="M-205.3,396.6c0-0.1,0-0.2,0-0.4c0-0.1,0-0.3,0-0.4c0-0.2,0-0.4,0-0.5c0-0.1,0.1-0.2,0.1-0.2c0.3-0.3,0.7-0.5,1.1-0.7
		c0.4-0.2,0.9-0.2,1.3-0.2c0.7,0,1.3,0.2,1.9,0.5c0.6,0.3,1.1,0.8,1.4,1.5c0,0.1,0,0.1,0,0.2c0,0,0,0.1,0,0.1s-0.1,0-0.1,0.1
		c-0.2,0.1-0.4,0.2-0.6,0.4c-0.2,0.2-0.4,0.4-0.7,0.7h2.3v4.8h-1.9c-0.8,0-1.3-0.1-1.7-0.2c-0.3-0.1-0.6-0.4-0.7-0.7
		c-0.1,0.2-0.2,0.4-0.4,0.5c-0.2,0.2-0.6,0.3-1,0.4h-3.3v-4.8h3.9c-0.2-0.1-0.3-0.3-0.5-0.4c-0.2-0.2-0.4-0.3-0.6-0.4
		C-204.8,396.7-205.1,396.6-205.3,396.6z M-203.5,396c0.2,0.1,0.5,0.3,0.7,0.5c0.1,0.1,0.3,0.3,0.5,0.6c0.1-0.1,0.3-0.3,0.5-0.5
		c0.2-0.1,0.3-0.3,0.4-0.3c-0.2-0.1-0.4-0.2-0.6-0.3c-0.2-0.1-0.5-0.1-0.7-0.1c-0.1,0-0.3,0-0.4,0C-203.3,395.9-203.4,396-203.5,396
		z"/>
	<path d="M-194.7,396.4c0.1,0.4,0.3,0.7,0.6,0.9c0.3,0.2,0.5,0.3,0.8,0.3c0.2,0,0.5-0.1,0.7-0.3c0.3-0.2,0.5-0.6,0.6-1
		c0-0.1,0.1-0.1,0.1-0.1c0.1,0,0.1,0.1,0.1,0.2c0.1,0.4,0.3,0.7,0.7,1s0.8,0.4,1.2,0.4c-0.1-0.3-0.1-0.5-0.2-0.8
		c-0.1-0.3-0.3-0.6-0.6-0.9l1.7-1.6c0.2,0.5,0.3,0.9,0.4,1c0.1,0.3,0.2,0.6,0.2,1s0.1,0.7,0.1,1v4.8h-2.1c-0.3,0-0.5-0.1-0.7-0.2
		c-0.1-0.1-0.3-0.2-0.6-0.4c-0.2,0.2-0.3,0.3-0.5,0.4c-0.3,0.1-0.6,0.2-1,0.2c-0.3,0-0.6,0-0.8-0.1c-0.3-0.1-0.5-0.2-0.7-0.5
		c-0.2,0.2-0.3,0.3-0.4,0.3c-0.2,0.2-0.5,0.2-1,0.2h-3.8v-4.8h3.1c0.3,0,0.7-0.1,0.9-0.3c0.2-0.2,0.4-0.4,0.5-0.7
		c0.1-0.2,0.1-0.3,0.2-0.3C-194.8,396.2-194.8,396.3-194.7,396.4z"/>
	<path d="M-183.4,393.7c0,0.7,0,1.6,0.1,2.5c0,0,0,0.8,0.1,2.2c0.1,0.9,0.1,1.6,0.1,2c0,0.2,0,0.6-0.1,1.2c0,0.3,0,0.5,0,0.7h-5.3
		v-4.8h3.6l-0.7-5.4l2.1-1.7c0,0.5,0,1,0.1,1.4c0.1,0.5,0.3,1,0.5,1.4L-183.4,393.7z"/>
	<path d="M-179.1,399.2c0,0.2,0,0.5-0.1,1c-0.1,0.6-0.2,1-0.3,1.2c-0.1,0.2-0.2,0.4-0.5,0.7c-0.3,0.3-0.6,0.7-1,1.1l-0.6-11.2
		l2.2-1.7L-179.1,399.2z"/>
	<path d="M-174.9,401.4c-0.1-0.7-0.3-1.4-0.4-2.1c-0.1-0.7-0.2-1.4-0.2-2c0-0.1,0-0.1,0.1-0.1c0.2,0.1,0.4,0.2,0.5,0.3
		c0.1,0.1,0.2,0.1,0.3,0.1c0.1,0,0.1,0,0.2-0.1c0.2-0.2,0.4-0.4,0.5-0.4c0.2-0.1,0.3-0.3,0.5-0.4l-0.8-5.2l1.9-1.3
		c0,0.5,0.1,0.9,0.2,1.2c0.1,0.4,0.3,0.8,0.6,1.1l-0.5,0.7c0,0.3,0.1,0.5,0.1,0.8s0,0.5,0,0.7c0,0.2,0,0.4,0,0.6
		c0,0.2-0.1,0.3-0.2,0.5c0.3-0.2,0.7-0.4,1.1-0.7c0.5-0.3,1-0.5,1.4-0.7c0.5-0.2,1-0.4,1.3-0.4c0.1,0,0.2,0,0.3,0h0.1
		c0.6,0,1.1,0.2,1.5,0.7c0.3,0.3,0.5,0.8,0.7,1.3c0.1,0.4,0.2,0.7,0.2,0.9c0,0.5,0,1.1-0.1,1.7c-0.1,0.6-0.2,1.2-0.3,1.8
		c-0.1,0.4-0.2,1-0.4,1.7c0,0.1-0.1,0.1-0.2,0.2c-0.1,0.1-0.2,0.1-0.3,0.1h-6.9c-0.4,0-0.7-0.1-0.9-0.2
		C-174.6,402-174.8,401.8-174.9,401.4z M-172.1,397.5h4.4c0-0.4-0.2-0.8-0.4-1c-0.3-0.3-0.6-0.5-1-0.5c-0.4,0-0.8,0.1-1.2,0.3
		C-170.9,396.6-171.5,397-172.1,397.5z"/>
	<path d="M-159,397.5h0.9v4.8h-1.1c-0.2,0.6-0.4,1.2-0.6,1.6c-0.3,0.5-0.6,0.9-1,1.2c-0.4,0.3-1,0.5-1.5,0.5c-0.1,0-0.2,0-0.3,0
		c-0.1,0-0.2,0-0.3-0.1c-0.3-0.1-0.6-0.2-1-0.4c-0.3-0.2-0.6-0.4-1-0.6c-0.3-0.2-0.6-0.4-0.9-0.6c-0.2-0.1-0.2-0.2-0.2-0.3
		c0-0.1,0.1-0.2,0.3-0.2c0,0,0.1,0,0.1,0c0,0,0.1,0,0.2,0c0.2,0,0.4,0.1,0.6,0.1s0.4,0,0.6,0c0.7,0,1.4-0.1,2-0.4
		c0.5-0.3,1-0.6,1.3-1c0.3-0.4,0.5-0.8,0.6-1.2c-0.3,0.4-0.6,0.8-0.9,1c-0.3,0.2-0.6,0.3-0.9,0.3c-0.6,0-1.1-0.3-1.6-0.8
		c-0.5-0.5-0.7-0.9-0.8-1.4v-0.2c0-0.6,0.2-1.4,0.5-2.5c0.3-1,0.7-1.9,1.2-2.7c0.5-0.9,1-1.3,1.5-1.3c0.5,0,1,0.4,1.4,1.2
		C-159.5,395.4-159.2,396.4-159,397.5z M-162.3,396.3c0,0.3,0.2,0.6,0.5,0.8c0.4,0.3,0.8,0.4,1.3,0.4h0.1c0.1,0,0.2,0,0.3,0
		c-0.1-0.5-0.4-0.9-0.7-1.3c-0.3-0.3-0.6-0.5-0.9-0.5c-0.1,0-0.3,0.1-0.4,0.2C-162.3,396-162.3,396.2-162.3,396.3z"/>
	<path d="M-158.7,402.3v-4.8h1.5c0.1,0,0.3-0.2,0.6-0.5c0.1-0.1,0.2-0.2,0.4-0.3l-0.8-5.2l1.9-1.3c0,0.4,0.1,0.8,0.2,1.2
		c0.1,0.4,0.3,0.7,0.6,1.1l-0.4,0.7c0,0.1,0,0.3,0.1,0.5c0.1,0.4,0.1,0.7,0.1,0.9c0,0.2,0,0.4,0,0.5c0,0.2-0.1,0.3-0.1,0.5
		c0.3-0.2,0.7-0.4,1.1-0.7c0.5-0.3,1-0.5,1.4-0.7c0.5-0.2,0.9-0.3,1.3-0.4c0.1,0,0.1,0,0.2,0s0.1,0,0.2,0c0.6,0,1.1,0.2,1.6,0.7
		c0.3,0.3,0.5,0.8,0.7,1.3c0.1,0.4,0.2,0.7,0.2,0.9c0,0.7-0.1,1.6-0.3,2.6c-0.1,0.9-0.3,1.7-0.6,2.6c0,0.1-0.1,0.1-0.1,0.2
		c-0.1,0-0.2,0.1-0.3,0.1H-158.7z M-154.9,397.5h4.4c0-0.4-0.2-0.7-0.4-1c-0.3-0.3-0.6-0.5-1.1-0.5c-0.4,0-0.8,0.1-1.2,0.3
		C-153.7,396.6-154.3,397-154.9,397.5z"/>
	<path d="M-138.8,397.5l-0.7-5.4l2.1-1.7c0,0.5,0,1,0.1,1.4c0.1,0.5,0.3,1,0.5,1.4l-0.4,0.4c0,0.7,0,1.6,0.1,2.5c0,0,0,0.8,0.1,2.2
		c0.1,0.9,0.1,1.6,0.1,2c0,0.2,0,0.6-0.1,1.2c0,0.3,0,0.5,0,0.7h-12.5v-4.8h6.5c-0.3-0.3-0.6-0.5-0.9-0.7c-0.4-0.2-0.7-0.4-1-0.5
		c-0.4-0.1-0.7-0.2-0.9-0.2c-0.3,0-0.6,0.1-0.8,0.4c-0.2,0.2-0.3,0.3-0.4,0.3c-0.1,0-0.1,0-0.1-0.1v0c0-0.4,0.1-0.7,0.2-1.1
		c0.1-0.5,0.3-0.8,0.5-1.1c0.3-0.4,0.6-0.6,0.9-0.6c0.1,0,0.1,0,0.2,0s0.1,0,0.2,0h0.1c0.7,0,1.3,0.3,1.9,1c0.5,0.6,1,1.2,1.5,1.9
		c0.6,0.7,1.3,1,2,1c0.1,0,0.2,0,0.3,0c0.1,0,0.3,0,0.4,0C-138.9,397.6-138.8,397.6-138.8,397.5z M-144,391.3l-1.2,1.4l-1.4-1.2
		l1.3-1.3L-144,391.3z"/>
	<path d="M-133.1,399.2c0,0.2,0,0.5-0.1,1c-0.1,0.6-0.2,1-0.3,1.2c-0.1,0.2-0.2,0.4-0.5,0.7c-0.3,0.3-0.6,0.7-1,1.1l-0.6-11.2
		l2.2-1.7L-133.1,399.2z"/>
</g>
<g>
	<path d="M-230,394.6l1.4-1.2l0.3,3.1c0,0.4,0.1,0.7,0.3,0.9c0.1,0.1,0.3,0.2,0.5,0.2h0.7v4.8h-0.9c-0.5-0.1-0.9-0.3-1.2-0.7
		c-0.2-0.3-0.3-0.6-0.3-1c0-0.4-0.1-0.6-0.1-0.6c-0.1,0.1-0.3,0.4-0.8,0.9c-0.3,0.4-0.5,0.6-0.6,0.5c-0.3-0.1-0.7-0.3-1.1-0.6
		c-0.5-0.3-0.9-0.5-1.4-0.8c0,0,0,0,0-0.1c0,0,0,0,0-0.1c0-0.1,0-0.4,0.1-0.8c0-0.1,0.1-0.4,0.2-1.1c0.1-0.4,0.1-0.7,0.2-0.9
		c0.5-0.5,0.9-0.9,1.2-1.1c0.3-0.2,0.8-0.5,1.5-0.9L-230,394.6z M-230.6,391.2l0.9-1l1.1,1l-1.1,1.1l-1.1-0.9l-0.9,0.9l-1.1-1l1-1.2
		L-230.6,391.2z M-229.8,396.8c-0.3,0.1-0.6,0.2-1,0.4c-0.2,0.1-0.5,0.3-0.7,0.5c0.2,0.1,0.5,0.2,0.8,0.3c0.2,0.1,0.5,0.3,0.7,0.4
		l0.4-0.4L-229.8,396.8z"/>
	<path d="M-223.4,397.5c-0.1-0.3-0.2-0.7-0.4-1c-0.2-0.3-0.4-0.6-0.7-0.9l1.9-1.8c0.5,1.5,0.8,2.7,0.8,3.7v4.8h-5.9v-4.8H-223.4z
		 M-224.6,404.5l0.9-1l1.1,1l-1.1,1.1l-1.1-0.9l-0.9,0.9l-1.1-1l1-1.2L-224.6,404.5z"/>
	<path d="M-214.9,402c-0.2,0.2-0.5,0.3-0.9,0.3c-0.3,0.1-0.8,0.1-1.4,0.1c-0.3,0-0.7,0-1.3,0s-0.9,0-1.1,0c-0.2,0-0.5-0.1-0.6-0.2
		c-0.2-0.2-0.3-0.4-0.3-0.7c0-0.3-0.1-0.6-0.1-1.1c0-0.4,0-0.8,0-1.2c0-0.4,0-0.8,0-1.4c0-0.1,0-0.2,0-0.2c0,0,0.1-0.1,0.1-0.1
		c0,0,0.1,0,0.2,0.1c0.1,0,0.1,0.1,0.2,0.1c0.3,0.1,0.5,0.1,0.8,0.2c0.3,0,0.6,0.1,0.9,0.1c0.4,0,0.8,0,1.2-0.1
		c0.3,0,0.6-0.1,0.8-0.2c-0.1-0.4-0.3-0.9-0.6-1.4s-0.5-0.8-0.6-0.8l-0.1,0c-0.1,0.1-0.2,0.2-0.3,0.2s-0.2,0.1-0.2,0.1
		c-0.1,0-0.2-0.1-0.2-0.3c0-0.1,0-0.1,0-0.2c0.1-0.4,0.2-0.6,0.2-0.6c0.1-0.2,0.2-0.4,0.3-0.6c0.1-0.2,0.2-0.4,0.4-0.5
		c0.2-0.2,0.4-0.4,0.6-0.4c0.2,0,0.3,0.1,0.5,0.3c0.5,0.6,0.9,1.3,1.2,2.1c0.3,0.7,0.5,1.4,0.5,2.1c0,0.3,0,0.6,0,0.8
		c0,0.9,0,1.4,0,1.4c0,0.5,0,0.9-0.1,1.2C-214.7,401.5-214.7,401.8-214.9,402z"/>
	<path d="M-207.8,397.5h0.9v4.8h-1.1c-0.2,0.6-0.4,1.2-0.6,1.6c-0.3,0.5-0.6,0.9-1,1.2c-0.4,0.3-1,0.5-1.5,0.5c-0.1,0-0.2,0-0.3,0
		c-0.1,0-0.2,0-0.3-0.1c-0.3-0.1-0.6-0.2-1-0.4c-0.3-0.2-0.6-0.4-1-0.6c-0.3-0.2-0.6-0.4-0.9-0.6c-0.1-0.1-0.2-0.2-0.2-0.3
		c0-0.1,0.1-0.2,0.3-0.2c0,0,0.1,0,0.1,0s0.1,0,0.2,0c0.2,0,0.4,0.1,0.6,0.1s0.4,0,0.6,0c0.7,0,1.4-0.1,2-0.4c0.5-0.3,1-0.6,1.3-1
		c0.3-0.4,0.5-0.8,0.6-1.2c-0.3,0.4-0.6,0.8-0.9,1c-0.3,0.2-0.6,0.3-0.9,0.3c-0.6,0-1.1-0.3-1.6-0.8c-0.5-0.5-0.7-0.9-0.8-1.4v-0.2
		c0-0.6,0.2-1.4,0.5-2.5c0.3-1,0.7-1.9,1.2-2.7c0.5-0.9,1-1.3,1.5-1.3c0.5,0,1,0.4,1.4,1.2C-208.3,395.4-208,396.4-207.8,397.5z
		 M-211.2,396.3c0,0.3,0.2,0.6,0.5,0.8c0.4,0.3,0.8,0.4,1.3,0.4h0.1c0.1,0,0.2,0,0.3,0c-0.1-0.5-0.4-0.9-0.7-1.3
		c-0.3-0.3-0.6-0.5-0.9-0.5c-0.1,0-0.3,0.1-0.4,0.2C-211.1,396-211.2,396.2-211.2,396.3z"/>
	<path d="M-205.3,396.6c0-0.1,0-0.2,0-0.4c0-0.1,0-0.3,0-0.4c0-0.2,0-0.4,0-0.5c0-0.1,0.1-0.2,0.1-0.2c0.3-0.3,0.7-0.5,1.1-0.7
		c0.4-0.2,0.9-0.2,1.3-0.2c0.7,0,1.3,0.2,1.9,0.5c0.6,0.3,1.1,0.8,1.4,1.5c0,0.1,0,0.1,0,0.2c0,0,0,0.1,0,0.1s-0.1,0-0.1,0.1
		c-0.2,0.1-0.4,0.2-0.6,0.4c-0.2,0.2-0.4,0.4-0.7,0.7h2.3v4.8h-1.9c-0.8,0-1.3-0.1-1.7-0.2c-0.3-0.1-0.6-0.4-0.7-0.7
		c-0.1,0.2-0.2,0.4-0.4,0.5c-0.2,0.2-0.6,0.3-1,0.4h-3.3v-4.8h3.9c-0.2-0.1-0.3-0.3-0.5-0.4c-0.2-0.2-0.4-0.3-0.6-0.4
		C-204.8,396.7-205.1,396.6-205.3,396.6z M-203.5,396c0.2,0.1,0.5,0.3,0.7,0.5c0.1,0.1,0.3,0.3,0.5,0.6c0.1-0.1,0.3-0.3,0.5-0.5
		c0.2-0.1,0.3-0.3,0.4-0.3c-0.2-0.1-0.4-0.2-0.6-0.3c-0.2-0.1-0.5-0.1-0.7-0.1c-0.1,0-0.3,0-0.4,0C-203.3,395.9-203.4,396-203.5,396
		z"/>
	<path d="M-194.7,396.4c0.1,0.4,0.3,0.7,0.6,0.9c0.3,0.2,0.5,0.3,0.8,0.3c0.2,0,0.5-0.1,0.7-0.3c0.3-0.2,0.5-0.6,0.6-1
		c0-0.1,0.1-0.1,0.1-0.1c0.1,0,0.1,0.1,0.1,0.2c0.1,0.4,0.3,0.7,0.7,1s0.8,0.4,1.2,0.4c-0.1-0.3-0.1-0.5-0.2-0.8
		c-0.1-0.3-0.3-0.6-0.6-0.9l1.7-1.6c0.2,0.5,0.3,0.9,0.4,1c0.1,0.3,0.2,0.6,0.2,1s0.1,0.7,0.1,1v4.8h-2.1c-0.3,0-0.5-0.1-0.7-0.2
		c-0.1-0.1-0.3-0.2-0.6-0.4c-0.2,0.2-0.3,0.3-0.5,0.4c-0.3,0.1-0.6,0.2-1,0.2c-0.3,0-0.6,0-0.8-0.1c-0.3-0.1-0.5-0.2-0.7-0.5
		c-0.2,0.2-0.3,0.3-0.4,0.3c-0.2,0.2-0.5,0.2-1,0.2h-3.8v-4.8h3.1c0.3,0,0.7-0.1,0.9-0.3c0.2-0.2,0.4-0.4,0.5-0.7
		c0.1-0.2,0.1-0.3,0.2-0.3C-194.8,396.2-194.8,396.3-194.7,396.4z"/>
	<path d="M-183.4,393.7c0,0.7,0,1.6,0.1,2.5c0,0,0,0.8,0.1,2.2c0.1,0.9,0.1,1.6,0.1,2c0,0.2,0,0.6-0.1,1.2c0,0.3,0,0.5,0,0.7h-5.3
		v-4.8h3.6l-0.7-5.4l2.1-1.7c0,0.5,0,1,0.1,1.4c0.1,0.5,0.3,1,0.5,1.4L-183.4,393.7z"/>
	<path d="M-179.1,399.2c0,0.2,0,0.5-0.1,1c-0.1,0.6-0.2,1-0.3,1.2c-0.1,0.2-0.2,0.4-0.5,0.7c-0.3,0.3-0.6,0.7-1,1.1l-0.6-11.2
		l2.2-1.7L-179.1,399.2z"/>
	<path d="M-174.9,401.4c-0.1-0.7-0.3-1.4-0.4-2.1c-0.1-0.7-0.2-1.4-0.2-2c0-0.1,0-0.1,0.1-0.1c0.2,0.1,0.4,0.2,0.5,0.3
		c0.1,0.1,0.2,0.1,0.3,0.1c0.1,0,0.1,0,0.2-0.1c0.2-0.2,0.4-0.4,0.5-0.4c0.2-0.1,0.3-0.3,0.5-0.4l-0.8-5.2l1.9-1.3
		c0,0.5,0.1,0.9,0.2,1.2c0.1,0.4,0.3,0.8,0.6,1.1l-0.5,0.7c0,0.3,0.1,0.5,0.1,0.8s0,0.5,0,0.7c0,0.2,0,0.4,0,0.6
		c0,0.2-0.1,0.3-0.2,0.5c0.3-0.2,0.7-0.4,1.1-0.7c0.5-0.3,1-0.5,1.4-0.7c0.5-0.2,1-0.4,1.3-0.4c0.1,0,0.2,0,0.3,0h0.1
		c0.6,0,1.1,0.2,1.5,0.7c0.3,0.3,0.5,0.8,0.7,1.3c0.1,0.4,0.2,0.7,0.2,0.9c0,0.5,0,1.1-0.1,1.7c-0.1,0.6-0.2,1.2-0.3,1.8
		c-0.1,0.4-0.2,1-0.4,1.7c0,0.1-0.1,0.1-0.2,0.2c-0.1,0.1-0.2,0.1-0.3,0.1h-6.9c-0.4,0-0.7-0.1-0.9-0.2
		C-174.6,402-174.8,401.8-174.9,401.4z M-172.1,397.5h4.4c0-0.4-0.2-0.8-0.4-1c-0.3-0.3-0.6-0.5-1-0.5c-0.4,0-0.8,0.1-1.2,0.3
		C-170.9,396.6-171.5,397-172.1,397.5z"/>
	<path d="M-159,397.5h0.9v4.8h-1.1c-0.2,0.6-0.4,1.2-0.6,1.6c-0.3,0.5-0.6,0.9-1,1.2c-0.4,0.3-1,0.5-1.5,0.5c-0.1,0-0.2,0-0.3,0
		c-0.1,0-0.2,0-0.3-0.1c-0.3-0.1-0.6-0.2-1-0.4c-0.3-0.2-0.6-0.4-1-0.6c-0.3-0.2-0.6-0.4-0.9-0.6c-0.2-0.1-0.2-0.2-0.2-0.3
		c0-0.1,0.1-0.2,0.3-0.2c0,0,0.1,0,0.1,0c0,0,0.1,0,0.2,0c0.2,0,0.4,0.1,0.6,0.1s0.4,0,0.6,0c0.7,0,1.4-0.1,2-0.4
		c0.5-0.3,1-0.6,1.3-1c0.3-0.4,0.5-0.8,0.6-1.2c-0.3,0.4-0.6,0.8-0.9,1c-0.3,0.2-0.6,0.3-0.9,0.3c-0.6,0-1.1-0.3-1.6-0.8
		c-0.5-0.5-0.7-0.9-0.8-1.4v-0.2c0-0.6,0.2-1.4,0.5-2.5c0.3-1,0.7-1.9,1.2-2.7c0.5-0.9,1-1.3,1.5-1.3c0.5,0,1,0.4,1.4,1.2
		C-159.5,395.4-159.2,396.4-159,397.5z M-162.3,396.3c0,0.3,0.2,0.6,0.5,0.8c0.4,0.3,0.8,0.4,1.3,0.4h0.1c0.1,0,0.2,0,0.3,0
		c-0.1-0.5-0.4-0.9-0.7-1.3c-0.3-0.3-0.6-0.5-0.9-0.5c-0.1,0-0.3,0.1-0.4,0.2C-162.3,396-162.3,396.2-162.3,396.3z"/>
	<path d="M-158.7,402.3v-4.8h1.5c0.1,0,0.3-0.2,0.6-0.5c0.1-0.1,0.2-0.2,0.4-0.3l-0.8-5.2l1.9-1.3c0,0.4,0.1,0.8,0.2,1.2
		c0.1,0.4,0.3,0.7,0.6,1.1l-0.4,0.7c0,0.1,0,0.3,0.1,0.5c0.1,0.4,0.1,0.7,0.1,0.9c0,0.2,0,0.4,0,0.5c0,0.2-0.1,0.3-0.1,0.5
		c0.3-0.2,0.7-0.4,1.1-0.7c0.5-0.3,1-0.5,1.4-0.7c0.5-0.2,0.9-0.3,1.3-0.4c0.1,0,0.1,0,0.2,0s0.1,0,0.2,0c0.6,0,1.1,0.2,1.6,0.7
		c0.3,0.3,0.5,0.8,0.7,1.3c0.1,0.4,0.2,0.7,0.2,0.9c0,0.7-0.1,1.6-0.3,2.6c-0.1,0.9-0.3,1.7-0.6,2.6c0,0.1-0.1,0.1-0.1,0.2
		c-0.1,0-0.2,0.1-0.3,0.1H-158.7z M-154.9,397.5h4.4c0-0.4-0.2-0.7-0.4-1c-0.3-0.3-0.6-0.5-1.1-0.5c-0.4,0-0.8,0.1-1.2,0.3
		C-153.7,396.6-154.3,397-154.9,397.5z"/>
	<path d="M-138.8,397.5l-0.7-5.4l2.1-1.7c0,0.5,0,1,0.1,1.4c0.1,0.5,0.3,1,0.5,1.4l-0.4,0.4c0,0.7,0,1.6,0.1,2.5c0,0,0,0.8,0.1,2.2
		c0.1,0.9,0.1,1.6,0.1,2c0,0.2,0,0.6-0.1,1.2c0,0.3,0,0.5,0,0.7h-12.5v-4.8h6.5c-0.3-0.3-0.6-0.5-0.9-0.7c-0.4-0.2-0.7-0.4-1-0.5
		c-0.4-0.1-0.7-0.2-0.9-0.2c-0.3,0-0.6,0.1-0.8,0.4c-0.2,0.2-0.3,0.3-0.4,0.3c-0.1,0-0.1,0-0.1-0.1v0c0-0.4,0.1-0.7,0.2-1.1
		c0.1-0.5,0.3-0.8,0.5-1.1c0.3-0.4,0.6-0.6,0.9-0.6c0.1,0,0.1,0,0.2,0s0.1,0,0.2,0h0.1c0.7,0,1.3,0.3,1.9,1c0.5,0.6,1,1.2,1.5,1.9
		c0.6,0.7,1.3,1,2,1c0.1,0,0.2,0,0.3,0c0.1,0,0.3,0,0.4,0C-138.9,397.6-138.8,397.6-138.8,397.5z M-144,391.3l-1.2,1.4l-1.4-1.2
		l1.3-1.3L-144,391.3z"/>
	<path d="M-133.1,399.2c0,0.2,0,0.5-0.1,1c-0.1,0.6-0.2,1-0.3,1.2c-0.1,0.2-0.2,0.4-0.5,0.7c-0.3,0.3-0.6,0.7-1,1.1l-0.6-11.2
		l2.2-1.7L-133.1,399.2z"/>
</g>
</svg>
