<?xml version="1.0"?>
<svg width="108" height="32" xmlns="http://www.w3.org/2000/svg" xmlns:svg="http://www.w3.org/2000/svg">
 <g class="layer">
  <title>Layer 1</title>
  <path d="m104.76,3.21c-1.7,-1.94 -3.52,-1.06 -4.96,-0.34c-0.61,0.3 -4.98,2.77 -4.98,2.77c-0.83,0.4 -1.76,0.51 -2.66,0.33c-0.9,-0.18 -1.72,-0.64 -2.33,-1.33c-0.07,-0.08 -0.14,-0.17 -0.19,-0.27l-0.17,-0.3c-0.29,-0.5 -0.61,-0.98 -0.96,-1.43c-0.22,-0.28 -0.45,-0.55 -0.69,-0.79c-1.64,-1.66 -4.26,-2.82 -8.64,-0.71c-2.07,1.2 -8.83,5.06 -8.83,5.06c-0.86,0.41 -1.83,0.52 -2.76,0.31c-0.92,-0.21 -1.75,-0.73 -2.35,-1.47c-0.03,-0.04 -0.05,-0.08 -0.07,-0.12l-0.09,-0.14l-0.42,-0.7c-0.2,-0.3 -0.4,-0.6 -0.62,-0.89c-0.22,-0.27 -0.45,-0.54 -0.7,-0.78c-1.62,-1.65 -4.23,-2.8 -8.57,-0.74c-2.62,1.5 -8.73,4.99 -8.73,4.99l-4.47,2.56l2.31,2.84c0.68,0.79 1.6,1.33 2.62,1.54c1.02,0.21 2.08,0.08 3.01,-0.38c0,0 7.81,-4.52 7.84,-4.53c6.68,-3.66 9.97,-0.16 11.43,2.17c0.05,0.07 0.09,0.15 0.13,0.22c0.02,0.03 0.03,0.06 0.05,0.09l0.16,0.27c0.33,0.54 0.8,0.98 1.35,1.29c0.56,0.3 1.18,0.46 1.82,0.45c0.7,-0.04 1.38,-0.27 1.96,-0.66l7.55,-4.38l0.02,-0.01c6.76,-3.71 10.11,0.02 11.54,2.36c0.11,0.19 0.23,0.39 0.37,0.57c0.31,0.48 0.75,0.88 1.26,1.15c0.51,0.27 1.08,0.41 1.66,0.41c0.66,-0.06 1.31,-0.26 1.88,-0.6l9.05,-5.23c-0.86,-1.25 -1.81,-2.44 -2.82,-3.57l0,-0.01z" fill="#757693" id="svg_2"/>
  <text fill="#000000" font-family="Serif" font-size="24" id="svg_3" stroke="#000000" stroke-width="0" text-anchor="middle" x="51" xml:space="preserve" y="25.5">هنقرستيشن</text>
 </g>
</svg>