<?xml version="1.0"?>
<svg width="120" height="24" xmlns="http://www.w3.org/2000/svg" xmlns:svg="http://www.w3.org/2000/svg" xmlns:xlink="http://www.w3.org/1999/xlink" enable-background="new -245 385 120 24" version="1.1" xml:space="preserve">
 <style type="text/css">.st0{display:none;clip-path:url(#SVGID_2_);}
	.st1{display:inline;fill:#757693;}</style>
 <g class="layer">
  <title>Layer 1</title>
  <g id="svg_1">
   <defs>
    <rect height="23.4" id="SVGID_1_" width="119.6" x="-245" y="385"/>
   </defs>
   <clipPath id="SVGID_2_">
    <use id="svg_2" overflow="visible" xlink:href="#SVGID_1_"/>
   </clipPath>
   <g class="st0" id="svg_3">
    <path class="st1" d="m-241.4,387.2c0.9,-0.8 1.9,-1.4 3.1,-1.7s2.3,-0.5 3.5,-0.4c1.2,0.1 2.3,0.4 3.4,0.9s2,1.3 2.8,2.2c1.7,1.7 2.6,3.9 2.7,6.3c0.1,2.4 -0.7,4.7 -2.2,6.4l-7.1,7.1c-1.4,-0.9 -3.8,-2.8 -2.8,-4.7c1.9,-2.4 4.2,-4.2 6.1,-6.6c1.4,-1.9 0.5,-5.6 -2.4,-6.1c-0.6,-0.2 -1.3,-0.3 -2,-0.2s-1.3,0.4 -1.8,0.8c-0.5,0.4 -0.9,1 -1.2,1.6c-0.2,0.6 -0.3,1.3 -0.2,2c0,2.4 1.9,3.8 3.3,5.2c-1.4,1.4 -3.3,2.4 -3.3,4.2c-1.4,-1.9 -3.8,-3.3 -4.7,-5.6c-0.9,-1.9 -1,-4.1 -0.5,-6.1s1.7,-4 3.3,-5.3z" id="svg_4"/>
    <path class="st1" d="m-211.2,387.2c0.5,-1.4 1.9,-0.9 2.8,-0.9l0,17.4l-2.8,0l0,-1.4c-1.1,0.9 -2.5,1.4 -4,1.4c-1.5,0 -2.9,-0.5 -4,-1.4c-1.3,-1.2 -2.1,-2.8 -2.2,-4.6c-0.1,-1.8 0.5,-3.5 1.7,-4.8c1.1,-1.2 2.5,-1.9 4.1,-2.1c1.6,-0.2 3.1,0.2 4.4,1.1l0,-4.7zm-4.3,6.1c-2.4,0.5 -4.2,3.8 -2.4,6.1c0.4,0.5 0.8,0.9 1.4,1.2c0.6,0.3 1.2,0.4 1.8,0.3c0.6,0 1.2,-0.3 1.7,-0.6c0.5,-0.4 0.9,-0.8 1.2,-1.4c1.5,-2.3 -0.8,-5.6 -3.7,-5.6l0,0z" id="svg_5"/>
    <path class="st1" d="m-206.1,391l2.8,0l0,0.9c0.9,-1.4 2.8,-1.4 4.7,-0.9c-0.5,0.9 -0.9,1.4 -0.9,2.4c-1.9,-0.5 -3.8,0.5 -3.8,1.9l0,7.1c-0.5,1.4 -1.9,1.4 -2.8,1.4l0,-12.8z" id="svg_6"/>
    <path class="st1" d="m-194.3,391c4.7,-1.9 9.4,2.8 8.5,7.5c-0.9,4.7 -7.5,7.1 -10.8,3.8c-3.8,-3.3 -2.4,-10.4 2.3,-11.3l0,0zm1.4,2.3c-0.8,0.2 -1.5,0.6 -2.1,1.2c-0.6,0.6 -1,1.3 -1.2,2.1c-0.1,1 0.2,2 0.8,2.8c0.6,0.8 1.5,1.3 2.5,1.4c1,0.1 2,-0.1 2.8,-0.8c0.8,-0.6 1.3,-1.5 1.4,-2.5c0.1,-2.3 -2.3,-4.7 -4.2,-4.2l0,0z" id="svg_7"/>
    <path class="st1" d="m-183.9,391l2.8,0l0,0.9c1.3,-0.9 2.9,-1.3 4.4,-1.1c1.6,0.2 3,0.9 4.1,2.1c0.6,0.6 1,1.3 1.3,2.1c0.3,0.8 0.4,1.6 0.4,2.5c0,0.8 -0.3,1.7 -0.6,2.4c-0.4,0.8 -0.9,1.4 -1.5,2c-1.9,2.4 -5.6,2.4 -8,0.9l0,4.2c-0.5,1.4 -1.9,1.4 -2.8,1.4l-0.1,-17.4l0,0zm6.1,2.3c-2.8,0.5 -4.2,3.8 -2.8,5.6c1.4,2.4 5.2,2.4 6.1,0c1.9,-2.3 -0.5,-5.6 -3.3,-5.6l0,0z" id="svg_8"/>
    <path class="st1" d="m-166.1,391.4c1.2,-0.7 2.6,-0.9 3.9,-0.8c1.4,0.2 2.6,0.8 3.6,1.7c-0.5,0.5 -0.9,1.4 -1.9,1.9c-0.4,-0.4 -1,-0.6 -1.5,-0.7c-0.6,-0.1 -1.1,-0.1 -1.7,0c-0.5,0.1 -1.1,0.4 -1.5,0.8c-0.4,0.4 -0.8,0.8 -1,1.4c-0.2,0.6 -0.3,1.2 -0.2,1.7c0.1,0.6 0.3,1.2 0.6,1.7c0.3,0.5 0.7,0.9 1.3,1.2c0.5,0.3 1.1,0.5 1.7,0.5c0.9,0 1.9,-0.5 2.8,-0.5c0.8,0.4 1.5,1 1.9,1.9c-3.3,2.8 -8.9,1.9 -10.4,-2.4c-1.8,-2.7 -0.4,-6.5 2.4,-8.4z" id="svg_9"/>
    <path class="st1" d="m-158.1,399.4c-1.4,-4.2 1.9,-8.9 6.1,-8.9c1.7,0.1 3.3,0.7 4.6,1.8c1.3,1.1 2.2,2.6 2.5,4.3l0,7.1c-1.4,0 -2.4,0 -3.3,-0.9c-3.3,2.3 -8.4,0.4 -9.9,-3.4l0,0zm6.2,-6.1c-0.6,0.1 -1.3,0.4 -1.8,0.8c-0.5,0.4 -0.9,0.9 -1.2,1.5c-0.3,0.6 -0.4,1.3 -0.4,1.9c0,0.7 0.2,1.3 0.5,1.9c1.9,2.4 5.6,1.9 6.6,-0.5c0.2,-0.6 0.3,-1.3 0.3,-2c-0.1,-0.7 -0.3,-1.3 -0.7,-1.9c-0.4,-0.6 -0.9,-1 -1.4,-1.3c-0.6,-0.2 -1.3,-0.4 -1.9,-0.4z" id="svg_10"/>
    <path class="st1" d="m-143,391l2.8,0l0,0.9c1.4,-1.9 4.7,-1.4 6.6,0.5c2.4,-2.8 7.1,-1.9 8,1.4c0.5,2.8 0,6.1 0,8.9c0,0.9 -1.4,0.9 -2.8,0.9c0,-2.8 0.5,-5.6 0,-8.5c-0.1,-0.5 -0.4,-0.9 -0.7,-1.3c-0.4,-0.3 -0.9,-0.5 -1.4,-0.5c-0.5,0 -1,0.2 -1.4,0.5c-0.4,0.3 -0.6,0.8 -0.7,1.3l0,8.5l-2.8,0c0.1,-3 -0.1,-6 -0.5,-8.9c-0.5,-1.9 -3.8,-1.4 -3.8,0.5c-0.4,2.8 -0.5,5.6 -0.5,8.5l-2.8,0l0,-12.7z" id="svg_11"/>
   </g>
  </g>
  <g id="svg_12">
   <path d="m-230,394.6l1.4,-1.2l0.3,3.1c0,0.4 0.1,0.7 0.3,0.9c0.1,0.1 0.3,0.2 0.5,0.2l0.7,0l0,4.8l-0.9,0c-0.5,-0.1 -0.9,-0.3 -1.2,-0.7c-0.2,-0.3 -0.3,-0.6 -0.3,-1c0,-0.4 -0.1,-0.6 -0.1,-0.6c-0.1,0.1 -0.3,0.4 -0.8,0.9c-0.3,0.4 -0.5,0.6 -0.6,0.5c-0.3,-0.1 -0.7,-0.3 -1.1,-0.6c-0.5,-0.3 -0.9,-0.5 -1.4,-0.8c0,0 0,0 0,-0.1c0,0 0,0 0,-0.1c0,-0.1 0,-0.4 0.1,-0.8c0,-0.1 0.1,-0.4 0.2,-1.1c0.1,-0.4 0.1,-0.7 0.2,-0.9c0.5,-0.5 0.9,-0.9 1.2,-1.1c0.3,-0.2 0.8,-0.5 1.5,-0.9l0,-0.5zm-0.6,-3.4l0.9,-1l1.1,1l-1.1,1.1l-1.1,-0.9l-0.9,0.9l-1.1,-1l1,-1.2l1.2,1.1zm0.8,5.6c-0.3,0.1 -0.6,0.2 -1,0.4c-0.2,0.1 -0.5,0.3 -0.7,0.5c0.2,0.1 0.5,0.2 0.8,0.3c0.2,0.1 0.5,0.3 0.7,0.4l0.4,-0.4l-0.2,-1.2z" id="svg_13"/>
   <path d="m-223.4,397.5c-0.1,-0.3 -0.2,-0.7 -0.4,-1c-0.2,-0.3 -0.4,-0.6 -0.7,-0.9l1.9,-1.8c0.5,1.5 0.8,2.7 0.8,3.7l0,4.8l-5.9,0l0,-4.8l4.3,0zm-1.2,7l0.9,-1l1.1,1l-1.1,1.1l-1.1,-0.9l-0.9,0.9l-1.1,-1l1,-1.2l1.2,1.1z" id="svg_14"/>
   <path d="m-214.9,402c-0.2,0.2 -0.5,0.3 -0.9,0.3c-0.3,0.1 -0.8,0.1 -1.4,0.1c-0.3,0 -0.7,0 -1.3,0s-0.9,0 -1.1,0c-0.2,0 -0.5,-0.1 -0.6,-0.2c-0.2,-0.2 -0.3,-0.4 -0.3,-0.7c0,-0.3 -0.1,-0.6 -0.1,-1.1c0,-0.4 0,-0.8 0,-1.2c0,-0.4 0,-0.8 0,-1.4c0,-0.1 0,-0.2 0,-0.2c0,0 0.1,-0.1 0.1,-0.1c0,0 0.1,0 0.2,0.1c0.1,0 0.1,0.1 0.2,0.1c0.3,0.1 0.5,0.1 0.8,0.2c0.3,0 0.6,0.1 0.9,0.1c0.4,0 0.8,0 1.2,-0.1c0.3,0 0.6,-0.1 0.8,-0.2c-0.1,-0.4 -0.3,-0.9 -0.6,-1.4s-0.5,-0.8 -0.6,-0.8l-0.1,0c-0.1,0.1 -0.2,0.2 -0.3,0.2s-0.2,0.1 -0.2,0.1c-0.1,0 -0.2,-0.1 -0.2,-0.3c0,-0.1 0,-0.1 0,-0.2c0.1,-0.4 0.2,-0.6 0.2,-0.6c0.1,-0.2 0.2,-0.4 0.3,-0.6c0.1,-0.2 0.2,-0.4 0.4,-0.5c0.2,-0.2 0.4,-0.4 0.6,-0.4c0.2,0 0.3,0.1 0.5,0.3c0.5,0.6 0.9,1.3 1.2,2.1c0.3,0.7 0.5,1.4 0.5,2.1c0,0.3 0,0.6 0,0.8c0,0.9 0,1.4 0,1.4c0,0.5 0,0.9 -0.1,1.2c0.1,0.4 0.1,0.7 -0.1,0.9z" id="svg_15"/>
   <path d="m-207.8,397.5l0.9,0l0,4.8l-1.1,0c-0.2,0.6 -0.4,1.2 -0.6,1.6c-0.3,0.5 -0.6,0.9 -1,1.2c-0.4,0.3 -1,0.5 -1.5,0.5c-0.1,0 -0.2,0 -0.3,0c-0.1,0 -0.2,0 -0.3,-0.1c-0.3,-0.1 -0.6,-0.2 -1,-0.4c-0.3,-0.2 -0.6,-0.4 -1,-0.6c-0.3,-0.2 -0.6,-0.4 -0.9,-0.6c-0.1,-0.1 -0.2,-0.2 -0.2,-0.3c0,-0.1 0.1,-0.2 0.3,-0.2c0,0 0.1,0 0.1,0s0.1,0 0.2,0c0.2,0 0.4,0.1 0.6,0.1s0.4,0 0.6,0c0.7,0 1.4,-0.1 2,-0.4c0.5,-0.3 1,-0.6 1.3,-1c0.3,-0.4 0.5,-0.8 0.6,-1.2c-0.3,0.4 -0.6,0.8 -0.9,1c-0.3,0.2 -0.6,0.3 -0.9,0.3c-0.6,0 -1.1,-0.3 -1.6,-0.8c-0.5,-0.5 -0.7,-0.9 -0.8,-1.4l0,-0.2c0,-0.6 0.2,-1.4 0.5,-2.5c0.3,-1 0.7,-1.9 1.2,-2.7c0.5,-0.9 1,-1.3 1.5,-1.3c0.5,0 1,0.4 1.4,1.2c0.4,0.9 0.7,1.9 0.9,3zm-3.4,-1.2c0,0.3 0.2,0.6 0.5,0.8c0.4,0.3 0.8,0.4 1.3,0.4l0.1,0c0.1,0 0.2,0 0.3,0c-0.1,-0.5 -0.4,-0.9 -0.7,-1.3c-0.3,-0.3 -0.6,-0.5 -0.9,-0.5c-0.1,0 -0.3,0.1 -0.4,0.2c-0.1,0.1 -0.2,0.3 -0.2,0.4z" id="svg_16"/>
   <path d="m-205.3,396.6c0,-0.1 0,-0.2 0,-0.4c0,-0.1 0,-0.3 0,-0.4c0,-0.2 0,-0.4 0,-0.5c0,-0.1 0.1,-0.2 0.1,-0.2c0.3,-0.3 0.7,-0.5 1.1,-0.7c0.4,-0.2 0.9,-0.2 1.3,-0.2c0.7,0 1.3,0.2 1.9,0.5c0.6,0.3 1.1,0.8 1.4,1.5c0,0.1 0,0.1 0,0.2c0,0 0,0.1 0,0.1s-0.1,0 -0.1,0.1c-0.2,0.1 -0.4,0.2 -0.6,0.4c-0.2,0.2 -0.4,0.4 -0.7,0.7l2.3,0l0,4.8l-1.9,0c-0.8,0 -1.3,-0.1 -1.7,-0.2c-0.3,-0.1 -0.6,-0.4 -0.7,-0.7c-0.1,0.2 -0.2,0.4 -0.4,0.5c-0.2,0.2 -0.6,0.3 -1,0.4l-3.3,0l0,-4.8l3.9,0c-0.2,-0.1 -0.3,-0.3 -0.5,-0.4c-0.2,-0.2 -0.4,-0.3 -0.6,-0.4c0,-0.2 -0.3,-0.3 -0.5,-0.3zm1.8,-0.6c0.2,0.1 0.5,0.3 0.7,0.5c0.1,0.1 0.3,0.3 0.5,0.6c0.1,-0.1 0.3,-0.3 0.5,-0.5c0.2,-0.1 0.3,-0.3 0.4,-0.3c-0.2,-0.1 -0.4,-0.2 -0.6,-0.3c-0.2,-0.1 -0.5,-0.1 -0.7,-0.1c-0.1,0 -0.3,0 -0.4,0c-0.2,0 -0.3,0.1 -0.4,0.1z" id="svg_17"/>
   <path d="m-194.7,396.4c0.1,0.4 0.3,0.7 0.6,0.9c0.3,0.2 0.5,0.3 0.8,0.3c0.2,0 0.5,-0.1 0.7,-0.3c0.3,-0.2 0.5,-0.6 0.6,-1c0,-0.1 0.1,-0.1 0.1,-0.1c0.1,0 0.1,0.1 0.1,0.2c0.1,0.4 0.3,0.7 0.7,1s0.8,0.4 1.2,0.4c-0.1,-0.3 -0.1,-0.5 -0.2,-0.8c-0.1,-0.3 -0.3,-0.6 -0.6,-0.9l1.7,-1.6c0.2,0.5 0.3,0.9 0.4,1c0.1,0.3 0.2,0.6 0.2,1s0.1,0.7 0.1,1l0,4.8l-2.1,0c-0.3,0 -0.5,-0.1 -0.7,-0.2c-0.1,-0.1 -0.3,-0.2 -0.6,-0.4c-0.2,0.2 -0.3,0.3 -0.5,0.4c-0.3,0.1 -0.6,0.2 -1,0.2c-0.3,0 -0.6,0 -0.8,-0.1c-0.3,-0.1 -0.5,-0.2 -0.7,-0.5c-0.2,0.2 -0.3,0.3 -0.4,0.3c-0.2,0.2 -0.5,0.2 -1,0.2l-3.8,0l0,-4.8l3.1,0c0.3,0 0.7,-0.1 0.9,-0.3c0.2,-0.2 0.4,-0.4 0.5,-0.7c0.1,-0.2 0.1,-0.3 0.2,-0.3c0.4,0.1 0.4,0.2 0.5,0.3z" id="svg_18"/>
   <path d="m-183.4,393.7c0,0.7 0,1.6 0.1,2.5c0,0 0,0.8 0.1,2.2c0.1,0.9 0.1,1.6 0.1,2c0,0.2 0,0.6 -0.1,1.2c0,0.3 0,0.5 0,0.7l-5.3,0l0,-4.8l3.6,0l-0.7,-5.4l2.1,-1.7c0,0.5 0,1 0.1,1.4c0.1,0.5 0.3,1 0.5,1.4l-0.5,0.5z" id="svg_19"/>
   <path d="m-179.1,399.2c0,0.2 0,0.5 -0.1,1c-0.1,0.6 -0.2,1 -0.3,1.2c-0.1,0.2 -0.2,0.4 -0.5,0.7c-0.3,0.3 -0.6,0.7 -1,1.1l-0.6,-11.2l2.2,-1.7l0.3,8.9z" id="svg_20"/>
   <path d="m-174.9,401.4c-0.1,-0.7 -0.3,-1.4 -0.4,-2.1c-0.1,-0.7 -0.2,-1.4 -0.2,-2c0,-0.1 0,-0.1 0.1,-0.1c0.2,0.1 0.4,0.2 0.5,0.3c0.1,0.1 0.2,0.1 0.3,0.1c0.1,0 0.1,0 0.2,-0.1c0.2,-0.2 0.4,-0.4 0.5,-0.4c0.2,-0.1 0.3,-0.3 0.5,-0.4l-0.8,-5.2l1.9,-1.3c0,0.5 0.1,0.9 0.2,1.2c0.1,0.4 0.3,0.8 0.6,1.1l-0.5,0.7c0,0.3 0.1,0.5 0.1,0.8s0,0.5 0,0.7c0,0.2 0,0.4 0,0.6c0,0.2 -0.1,0.3 -0.2,0.5c0.3,-0.2 0.7,-0.4 1.1,-0.7c0.5,-0.3 1,-0.5 1.4,-0.7c0.5,-0.2 1,-0.4 1.3,-0.4c0.1,0 0.2,0 0.3,0l0.1,0c0.6,0 1.1,0.2 1.5,0.7c0.3,0.3 0.5,0.8 0.7,1.3c0.1,0.4 0.2,0.7 0.2,0.9c0,0.5 0,1.1 -0.1,1.7c-0.1,0.6 -0.2,1.2 -0.3,1.8c-0.1,0.4 -0.2,1 -0.4,1.7c0,0.1 -0.1,0.1 -0.2,0.2c-0.1,0.1 -0.2,0.1 -0.3,0.1l-6.9,0c-0.4,0 -0.7,-0.1 -0.9,-0.2c0,-0.2 -0.2,-0.4 -0.3,-0.8zm2.8,-3.9l4.4,0c0,-0.4 -0.2,-0.8 -0.4,-1c-0.3,-0.3 -0.6,-0.5 -1,-0.5c-0.4,0 -0.8,0.1 -1.2,0.3c-0.6,0.3 -1.2,0.7 -1.8,1.2z" id="svg_21"/>
   <path d="m-159,397.5l0.9,0l0,4.8l-1.1,0c-0.2,0.6 -0.4,1.2 -0.6,1.6c-0.3,0.5 -0.6,0.9 -1,1.2c-0.4,0.3 -1,0.5 -1.5,0.5c-0.1,0 -0.2,0 -0.3,0c-0.1,0 -0.2,0 -0.3,-0.1c-0.3,-0.1 -0.6,-0.2 -1,-0.4c-0.3,-0.2 -0.6,-0.4 -1,-0.6c-0.3,-0.2 -0.6,-0.4 -0.9,-0.6c-0.2,-0.1 -0.2,-0.2 -0.2,-0.3c0,-0.1 0.1,-0.2 0.3,-0.2c0,0 0.1,0 0.1,0c0,0 0.1,0 0.2,0c0.2,0 0.4,0.1 0.6,0.1s0.4,0 0.6,0c0.7,0 1.4,-0.1 2,-0.4c0.5,-0.3 1,-0.6 1.3,-1c0.3,-0.4 0.5,-0.8 0.6,-1.2c-0.3,0.4 -0.6,0.8 -0.9,1c-0.3,0.2 -0.6,0.3 -0.9,0.3c-0.6,0 -1.1,-0.3 -1.6,-0.8c-0.5,-0.5 -0.7,-0.9 -0.8,-1.4l0,-0.2c0,-0.6 0.2,-1.4 0.5,-2.5c0.3,-1 0.7,-1.9 1.2,-2.7c0.5,-0.9 1,-1.3 1.5,-1.3c0.5,0 1,0.4 1.4,1.2c0.4,0.9 0.7,1.9 0.9,3zm-3.3,-1.2c0,0.3 0.2,0.6 0.5,0.8c0.4,0.3 0.8,0.4 1.3,0.4l0.1,0c0.1,0 0.2,0 0.3,0c-0.1,-0.5 -0.4,-0.9 -0.7,-1.3c-0.3,-0.3 -0.6,-0.5 -0.9,-0.5c-0.1,0 -0.3,0.1 -0.4,0.2c-0.2,0.1 -0.2,0.3 -0.2,0.4z" id="svg_22"/>
   <path d="m-158.7,402.3l0,-4.8l1.5,0c0.1,0 0.3,-0.2 0.6,-0.5c0.1,-0.1 0.2,-0.2 0.4,-0.3l-0.8,-5.2l1.9,-1.3c0,0.4 0.1,0.8 0.2,1.2c0.1,0.4 0.3,0.7 0.6,1.1l-0.4,0.7c0,0.1 0,0.3 0.1,0.5c0.1,0.4 0.1,0.7 0.1,0.9c0,0.2 0,0.4 0,0.5c0,0.2 -0.1,0.3 -0.1,0.5c0.3,-0.2 0.7,-0.4 1.1,-0.7c0.5,-0.3 1,-0.5 1.4,-0.7c0.5,-0.2 0.9,-0.3 1.3,-0.4c0.1,0 0.1,0 0.2,0s0.1,0 0.2,0c0.6,0 1.1,0.2 1.6,0.7c0.3,0.3 0.5,0.8 0.7,1.3c0.1,0.4 0.2,0.7 0.2,0.9c0,0.7 -0.1,1.6 -0.3,2.6c-0.1,0.9 -0.3,1.7 -0.6,2.6c0,0.1 -0.1,0.1 -0.1,0.2c-0.1,0 -0.2,0.1 -0.3,0.1l-9.5,0l0,0.1zm3.8,-4.8l4.4,0c0,-0.4 -0.2,-0.7 -0.4,-1c-0.3,-0.3 -0.6,-0.5 -1.1,-0.5c-0.4,0 -0.8,0.1 -1.2,0.3c-0.5,0.3 -1.1,0.7 -1.7,1.2z" id="svg_23"/>
   <path d="m-138.8,397.5l-0.7,-5.4l2.1,-1.7c0,0.5 0,1 0.1,1.4c0.1,0.5 0.3,1 0.5,1.4l-0.4,0.4c0,0.7 0,1.6 0.1,2.5c0,0 0,0.8 0.1,2.2c0.1,0.9 0.1,1.6 0.1,2c0,0.2 0,0.6 -0.1,1.2c0,0.3 0,0.5 0,0.7l-12.5,0l0,-4.8l6.5,0c-0.3,-0.3 -0.6,-0.5 -0.9,-0.7c-0.4,-0.2 -0.7,-0.4 -1,-0.5c-0.4,-0.1 -0.7,-0.2 -0.9,-0.2c-0.3,0 -0.6,0.1 -0.8,0.4c-0.2,0.2 -0.3,0.3 -0.4,0.3c-0.1,0 -0.1,0 -0.1,-0.1l0,0c0,-0.4 0.1,-0.7 0.2,-1.1c0.1,-0.5 0.3,-0.8 0.5,-1.1c0.3,-0.4 0.6,-0.6 0.9,-0.6c0.1,0 0.1,0 0.2,0s0.1,0 0.2,0l0.1,0c0.7,0 1.3,0.3 1.9,1c0.5,0.6 1,1.2 1.5,1.9c0.6,0.7 1.3,1 2,1c0.1,0 0.2,0 0.3,0c0.1,0 0.3,0 0.4,0c0,-0.1 0.1,-0.1 0.1,-0.2zm-5.2,-6.2l-1.2,1.4l-1.4,-1.2l1.3,-1.3l1.3,1.1z" id="svg_24"/>
   <path d="m-133.1,399.2c0,0.2 0,0.5 -0.1,1c-0.1,0.6 -0.2,1 -0.3,1.2c-0.1,0.2 -0.2,0.4 -0.5,0.7c-0.3,0.3 -0.6,0.7 -1,1.1l-0.6,-11.2l2.2,-1.7l0.3,8.9z" id="svg_25"/>
  </g>
  <g id="svg_26">
   <path d="m-230,394.6l1.4,-1.2l0.3,3.1c0,0.4 0.1,0.7 0.3,0.9c0.1,0.1 0.3,0.2 0.5,0.2l0.7,0l0,4.8l-0.9,0c-0.5,-0.1 -0.9,-0.3 -1.2,-0.7c-0.2,-0.3 -0.3,-0.6 -0.3,-1c0,-0.4 -0.1,-0.6 -0.1,-0.6c-0.1,0.1 -0.3,0.4 -0.8,0.9c-0.3,0.4 -0.5,0.6 -0.6,0.5c-0.3,-0.1 -0.7,-0.3 -1.1,-0.6c-0.5,-0.3 -0.9,-0.5 -1.4,-0.8c0,0 0,0 0,-0.1c0,0 0,0 0,-0.1c0,-0.1 0,-0.4 0.1,-0.8c0,-0.1 0.1,-0.4 0.2,-1.1c0.1,-0.4 0.1,-0.7 0.2,-0.9c0.5,-0.5 0.9,-0.9 1.2,-1.1c0.3,-0.2 0.8,-0.5 1.5,-0.9l0,-0.5zm-0.6,-3.4l0.9,-1l1.1,1l-1.1,1.1l-1.1,-0.9l-0.9,0.9l-1.1,-1l1,-1.2l1.2,1.1zm0.8,5.6c-0.3,0.1 -0.6,0.2 -1,0.4c-0.2,0.1 -0.5,0.3 -0.7,0.5c0.2,0.1 0.5,0.2 0.8,0.3c0.2,0.1 0.5,0.3 0.7,0.4l0.4,-0.4l-0.2,-1.2z" id="svg_27"/>
   <path d="m-223.4,397.5c-0.1,-0.3 -0.2,-0.7 -0.4,-1c-0.2,-0.3 -0.4,-0.6 -0.7,-0.9l1.9,-1.8c0.5,1.5 0.8,2.7 0.8,3.7l0,4.8l-5.9,0l0,-4.8l4.3,0zm-1.2,7l0.9,-1l1.1,1l-1.1,1.1l-1.1,-0.9l-0.9,0.9l-1.1,-1l1,-1.2l1.2,1.1z" id="svg_28"/>
   <path d="m-214.9,402c-0.2,0.2 -0.5,0.3 -0.9,0.3c-0.3,0.1 -0.8,0.1 -1.4,0.1c-0.3,0 -0.7,0 -1.3,0s-0.9,0 -1.1,0c-0.2,0 -0.5,-0.1 -0.6,-0.2c-0.2,-0.2 -0.3,-0.4 -0.3,-0.7c0,-0.3 -0.1,-0.6 -0.1,-1.1c0,-0.4 0,-0.8 0,-1.2c0,-0.4 0,-0.8 0,-1.4c0,-0.1 0,-0.2 0,-0.2c0,0 0.1,-0.1 0.1,-0.1c0,0 0.1,0 0.2,0.1c0.1,0 0.1,0.1 0.2,0.1c0.3,0.1 0.5,0.1 0.8,0.2c0.3,0 0.6,0.1 0.9,0.1c0.4,0 0.8,0 1.2,-0.1c0.3,0 0.6,-0.1 0.8,-0.2c-0.1,-0.4 -0.3,-0.9 -0.6,-1.4s-0.5,-0.8 -0.6,-0.8l-0.1,0c-0.1,0.1 -0.2,0.2 -0.3,0.2s-0.2,0.1 -0.2,0.1c-0.1,0 -0.2,-0.1 -0.2,-0.3c0,-0.1 0,-0.1 0,-0.2c0.1,-0.4 0.2,-0.6 0.2,-0.6c0.1,-0.2 0.2,-0.4 0.3,-0.6c0.1,-0.2 0.2,-0.4 0.4,-0.5c0.2,-0.2 0.4,-0.4 0.6,-0.4c0.2,0 0.3,0.1 0.5,0.3c0.5,0.6 0.9,1.3 1.2,2.1c0.3,0.7 0.5,1.4 0.5,2.1c0,0.3 0,0.6 0,0.8c0,0.9 0,1.4 0,1.4c0,0.5 0,0.9 -0.1,1.2c0.1,0.4 0.1,0.7 -0.1,0.9z" id="svg_29"/>
   <path d="m-207.8,397.5l0.9,0l0,4.8l-1.1,0c-0.2,0.6 -0.4,1.2 -0.6,1.6c-0.3,0.5 -0.6,0.9 -1,1.2c-0.4,0.3 -1,0.5 -1.5,0.5c-0.1,0 -0.2,0 -0.3,0c-0.1,0 -0.2,0 -0.3,-0.1c-0.3,-0.1 -0.6,-0.2 -1,-0.4c-0.3,-0.2 -0.6,-0.4 -1,-0.6c-0.3,-0.2 -0.6,-0.4 -0.9,-0.6c-0.1,-0.1 -0.2,-0.2 -0.2,-0.3c0,-0.1 0.1,-0.2 0.3,-0.2c0,0 0.1,0 0.1,0s0.1,0 0.2,0c0.2,0 0.4,0.1 0.6,0.1s0.4,0 0.6,0c0.7,0 1.4,-0.1 2,-0.4c0.5,-0.3 1,-0.6 1.3,-1c0.3,-0.4 0.5,-0.8 0.6,-1.2c-0.3,0.4 -0.6,0.8 -0.9,1c-0.3,0.2 -0.6,0.3 -0.9,0.3c-0.6,0 -1.1,-0.3 -1.6,-0.8c-0.5,-0.5 -0.7,-0.9 -0.8,-1.4l0,-0.2c0,-0.6 0.2,-1.4 0.5,-2.5c0.3,-1 0.7,-1.9 1.2,-2.7c0.5,-0.9 1,-1.3 1.5,-1.3c0.5,0 1,0.4 1.4,1.2c0.4,0.9 0.7,1.9 0.9,3zm-3.4,-1.2c0,0.3 0.2,0.6 0.5,0.8c0.4,0.3 0.8,0.4 1.3,0.4l0.1,0c0.1,0 0.2,0 0.3,0c-0.1,-0.5 -0.4,-0.9 -0.7,-1.3c-0.3,-0.3 -0.6,-0.5 -0.9,-0.5c-0.1,0 -0.3,0.1 -0.4,0.2c-0.1,0.1 -0.2,0.3 -0.2,0.4z" id="svg_30"/>
   <path d="m-205.3,396.6c0,-0.1 0,-0.2 0,-0.4c0,-0.1 0,-0.3 0,-0.4c0,-0.2 0,-0.4 0,-0.5c0,-0.1 0.1,-0.2 0.1,-0.2c0.3,-0.3 0.7,-0.5 1.1,-0.7c0.4,-0.2 0.9,-0.2 1.3,-0.2c0.7,0 1.3,0.2 1.9,0.5c0.6,0.3 1.1,0.8 1.4,1.5c0,0.1 0,0.1 0,0.2c0,0 0,0.1 0,0.1s-0.1,0 -0.1,0.1c-0.2,0.1 -0.4,0.2 -0.6,0.4c-0.2,0.2 -0.4,0.4 -0.7,0.7l2.3,0l0,4.8l-1.9,0c-0.8,0 -1.3,-0.1 -1.7,-0.2c-0.3,-0.1 -0.6,-0.4 -0.7,-0.7c-0.1,0.2 -0.2,0.4 -0.4,0.5c-0.2,0.2 -0.6,0.3 -1,0.4l-3.3,0l0,-4.8l3.9,0c-0.2,-0.1 -0.3,-0.3 -0.5,-0.4c-0.2,-0.2 -0.4,-0.3 -0.6,-0.4c0,-0.2 -0.3,-0.3 -0.5,-0.3zm1.8,-0.6c0.2,0.1 0.5,0.3 0.7,0.5c0.1,0.1 0.3,0.3 0.5,0.6c0.1,-0.1 0.3,-0.3 0.5,-0.5c0.2,-0.1 0.3,-0.3 0.4,-0.3c-0.2,-0.1 -0.4,-0.2 -0.6,-0.3c-0.2,-0.1 -0.5,-0.1 -0.7,-0.1c-0.1,0 -0.3,0 -0.4,0c-0.2,0 -0.3,0.1 -0.4,0.1z" id="svg_31"/>
   <path d="m-194.7,396.4c0.1,0.4 0.3,0.7 0.6,0.9c0.3,0.2 0.5,0.3 0.8,0.3c0.2,0 0.5,-0.1 0.7,-0.3c0.3,-0.2 0.5,-0.6 0.6,-1c0,-0.1 0.1,-0.1 0.1,-0.1c0.1,0 0.1,0.1 0.1,0.2c0.1,0.4 0.3,0.7 0.7,1s0.8,0.4 1.2,0.4c-0.1,-0.3 -0.1,-0.5 -0.2,-0.8c-0.1,-0.3 -0.3,-0.6 -0.6,-0.9l1.7,-1.6c0.2,0.5 0.3,0.9 0.4,1c0.1,0.3 0.2,0.6 0.2,1s0.1,0.7 0.1,1l0,4.8l-2.1,0c-0.3,0 -0.5,-0.1 -0.7,-0.2c-0.1,-0.1 -0.3,-0.2 -0.6,-0.4c-0.2,0.2 -0.3,0.3 -0.5,0.4c-0.3,0.1 -0.6,0.2 -1,0.2c-0.3,0 -0.6,0 -0.8,-0.1c-0.3,-0.1 -0.5,-0.2 -0.7,-0.5c-0.2,0.2 -0.3,0.3 -0.4,0.3c-0.2,0.2 -0.5,0.2 -1,0.2l-3.8,0l0,-4.8l3.1,0c0.3,0 0.7,-0.1 0.9,-0.3c0.2,-0.2 0.4,-0.4 0.5,-0.7c0.1,-0.2 0.1,-0.3 0.2,-0.3c0.4,0.1 0.4,0.2 0.5,0.3z" id="svg_32"/>
   <path d="m-183.4,393.7c0,0.7 0,1.6 0.1,2.5c0,0 0,0.8 0.1,2.2c0.1,0.9 0.1,1.6 0.1,2c0,0.2 0,0.6 -0.1,1.2c0,0.3 0,0.5 0,0.7l-5.3,0l0,-4.8l3.6,0l-0.7,-5.4l2.1,-1.7c0,0.5 0,1 0.1,1.4c0.1,0.5 0.3,1 0.5,1.4l-0.5,0.5z" id="svg_33"/>
   <path d="m-179.1,399.2c0,0.2 0,0.5 -0.1,1c-0.1,0.6 -0.2,1 -0.3,1.2c-0.1,0.2 -0.2,0.4 -0.5,0.7c-0.3,0.3 -0.6,0.7 -1,1.1l-0.6,-11.2l2.2,-1.7l0.3,8.9z" id="svg_34"/>
   <path d="m-174.9,401.4c-0.1,-0.7 -0.3,-1.4 -0.4,-2.1c-0.1,-0.7 -0.2,-1.4 -0.2,-2c0,-0.1 0,-0.1 0.1,-0.1c0.2,0.1 0.4,0.2 0.5,0.3c0.1,0.1 0.2,0.1 0.3,0.1c0.1,0 0.1,0 0.2,-0.1c0.2,-0.2 0.4,-0.4 0.5,-0.4c0.2,-0.1 0.3,-0.3 0.5,-0.4l-0.8,-5.2l1.9,-1.3c0,0.5 0.1,0.9 0.2,1.2c0.1,0.4 0.3,0.8 0.6,1.1l-0.5,0.7c0,0.3 0.1,0.5 0.1,0.8s0,0.5 0,0.7c0,0.2 0,0.4 0,0.6c0,0.2 -0.1,0.3 -0.2,0.5c0.3,-0.2 0.7,-0.4 1.1,-0.7c0.5,-0.3 1,-0.5 1.4,-0.7c0.5,-0.2 1,-0.4 1.3,-0.4c0.1,0 0.2,0 0.3,0l0.1,0c0.6,0 1.1,0.2 1.5,0.7c0.3,0.3 0.5,0.8 0.7,1.3c0.1,0.4 0.2,0.7 0.2,0.9c0,0.5 0,1.1 -0.1,1.7c-0.1,0.6 -0.2,1.2 -0.3,1.8c-0.1,0.4 -0.2,1 -0.4,1.7c0,0.1 -0.1,0.1 -0.2,0.2c-0.1,0.1 -0.2,0.1 -0.3,0.1l-6.9,0c-0.4,0 -0.7,-0.1 -0.9,-0.2c0,-0.2 -0.2,-0.4 -0.3,-0.8zm2.8,-3.9l4.4,0c0,-0.4 -0.2,-0.8 -0.4,-1c-0.3,-0.3 -0.6,-0.5 -1,-0.5c-0.4,0 -0.8,0.1 -1.2,0.3c-0.6,0.3 -1.2,0.7 -1.8,1.2z" id="svg_35"/>
   <path d="m-159,397.5l0.9,0l0,4.8l-1.1,0c-0.2,0.6 -0.4,1.2 -0.6,1.6c-0.3,0.5 -0.6,0.9 -1,1.2c-0.4,0.3 -1,0.5 -1.5,0.5c-0.1,0 -0.2,0 -0.3,0c-0.1,0 -0.2,0 -0.3,-0.1c-0.3,-0.1 -0.6,-0.2 -1,-0.4c-0.3,-0.2 -0.6,-0.4 -1,-0.6c-0.3,-0.2 -0.6,-0.4 -0.9,-0.6c-0.2,-0.1 -0.2,-0.2 -0.2,-0.3c0,-0.1 0.1,-0.2 0.3,-0.2c0,0 0.1,0 0.1,0c0,0 0.1,0 0.2,0c0.2,0 0.4,0.1 0.6,0.1s0.4,0 0.6,0c0.7,0 1.4,-0.1 2,-0.4c0.5,-0.3 1,-0.6 1.3,-1c0.3,-0.4 0.5,-0.8 0.6,-1.2c-0.3,0.4 -0.6,0.8 -0.9,1c-0.3,0.2 -0.6,0.3 -0.9,0.3c-0.6,0 -1.1,-0.3 -1.6,-0.8c-0.5,-0.5 -0.7,-0.9 -0.8,-1.4l0,-0.2c0,-0.6 0.2,-1.4 0.5,-2.5c0.3,-1 0.7,-1.9 1.2,-2.7c0.5,-0.9 1,-1.3 1.5,-1.3c0.5,0 1,0.4 1.4,1.2c0.4,0.9 0.7,1.9 0.9,3zm-3.3,-1.2c0,0.3 0.2,0.6 0.5,0.8c0.4,0.3 0.8,0.4 1.3,0.4l0.1,0c0.1,0 0.2,0 0.3,0c-0.1,-0.5 -0.4,-0.9 -0.7,-1.3c-0.3,-0.3 -0.6,-0.5 -0.9,-0.5c-0.1,0 -0.3,0.1 -0.4,0.2c-0.2,0.1 -0.2,0.3 -0.2,0.4z" id="svg_36"/>
   <path d="m-158.7,402.3l0,-4.8l1.5,0c0.1,0 0.3,-0.2 0.6,-0.5c0.1,-0.1 0.2,-0.2 0.4,-0.3l-0.8,-5.2l1.9,-1.3c0,0.4 0.1,0.8 0.2,1.2c0.1,0.4 0.3,0.7 0.6,1.1l-0.4,0.7c0,0.1 0,0.3 0.1,0.5c0.1,0.4 0.1,0.7 0.1,0.9c0,0.2 0,0.4 0,0.5c0,0.2 -0.1,0.3 -0.1,0.5c0.3,-0.2 0.7,-0.4 1.1,-0.7c0.5,-0.3 1,-0.5 1.4,-0.7c0.5,-0.2 0.9,-0.3 1.3,-0.4c0.1,0 0.1,0 0.2,0s0.1,0 0.2,0c0.6,0 1.1,0.2 1.6,0.7c0.3,0.3 0.5,0.8 0.7,1.3c0.1,0.4 0.2,0.7 0.2,0.9c0,0.7 -0.1,1.6 -0.3,2.6c-0.1,0.9 -0.3,1.7 -0.6,2.6c0,0.1 -0.1,0.1 -0.1,0.2c-0.1,0 -0.2,0.1 -0.3,0.1l-9.5,0l0,0.1zm3.8,-4.8l4.4,0c0,-0.4 -0.2,-0.7 -0.4,-1c-0.3,-0.3 -0.6,-0.5 -1.1,-0.5c-0.4,0 -0.8,0.1 -1.2,0.3c-0.5,0.3 -1.1,0.7 -1.7,1.2z" id="svg_37"/>
   <path d="m-138.8,397.5l-0.7,-5.4l2.1,-1.7c0,0.5 0,1 0.1,1.4c0.1,0.5 0.3,1 0.5,1.4l-0.4,0.4c0,0.7 0,1.6 0.1,2.5c0,0 0,0.8 0.1,2.2c0.1,0.9 0.1,1.6 0.1,2c0,0.2 0,0.6 -0.1,1.2c0,0.3 0,0.5 0,0.7l-12.5,0l0,-4.8l6.5,0c-0.3,-0.3 -0.6,-0.5 -0.9,-0.7c-0.4,-0.2 -0.7,-0.4 -1,-0.5c-0.4,-0.1 -0.7,-0.2 -0.9,-0.2c-0.3,0 -0.6,0.1 -0.8,0.4c-0.2,0.2 -0.3,0.3 -0.4,0.3c-0.1,0 -0.1,0 -0.1,-0.1l0,0c0,-0.4 0.1,-0.7 0.2,-1.1c0.1,-0.5 0.3,-0.8 0.5,-1.1c0.3,-0.4 0.6,-0.6 0.9,-0.6c0.1,0 0.1,0 0.2,0s0.1,0 0.2,0l0.1,0c0.7,0 1.3,0.3 1.9,1c0.5,0.6 1,1.2 1.5,1.9c0.6,0.7 1.3,1 2,1c0.1,0 0.2,0 0.3,0c0.1,0 0.3,0 0.4,0c0,-0.1 0.1,-0.1 0.1,-0.2zm-5.2,-6.2l-1.2,1.4l-1.4,-1.2l1.3,-1.3l1.3,1.1z" id="svg_38"/>
   <path d="m-133.1,399.2c0,0.2 0,0.5 -0.1,1c-0.1,0.6 -0.2,1 -0.3,1.2c-0.1,0.2 -0.2,0.4 -0.5,0.7c-0.3,0.3 -0.6,0.7 -1,1.1l-0.6,-11.2l2.2,-1.7l0.3,8.9z" id="svg_39"/>
  </g>
  <g id="svg_40">
   <path d="m-230,394.6l1.4,-1.2l0.3,3.1c0,0.4 0.1,0.7 0.3,0.9c0.1,0.1 0.3,0.2 0.5,0.2l0.7,0l0,4.8l-0.9,0c-0.5,-0.1 -0.9,-0.3 -1.2,-0.7c-0.2,-0.3 -0.3,-0.6 -0.3,-1c0,-0.4 -0.1,-0.6 -0.1,-0.6c-0.1,0.1 -0.3,0.4 -0.8,0.9c-0.3,0.4 -0.5,0.6 -0.6,0.5c-0.3,-0.1 -0.7,-0.3 -1.1,-0.6c-0.5,-0.3 -0.9,-0.5 -1.4,-0.8c0,0 0,0 0,-0.1c0,0 0,0 0,-0.1c0,-0.1 0,-0.4 0.1,-0.8c0,-0.1 0.1,-0.4 0.2,-1.1c0.1,-0.4 0.1,-0.7 0.2,-0.9c0.5,-0.5 0.9,-0.9 1.2,-1.1c0.3,-0.2 0.8,-0.5 1.5,-0.9l0,-0.5zm-0.6,-3.4l0.9,-1l1.1,1l-1.1,1.1l-1.1,-0.9l-0.9,0.9l-1.1,-1l1,-1.2l1.2,1.1zm0.8,5.6c-0.3,0.1 -0.6,0.2 -1,0.4c-0.2,0.1 -0.5,0.3 -0.7,0.5c0.2,0.1 0.5,0.2 0.8,0.3c0.2,0.1 0.5,0.3 0.7,0.4l0.4,-0.4l-0.2,-1.2z" id="svg_41"/>
   <path d="m-223.4,397.5c-0.1,-0.3 -0.2,-0.7 -0.4,-1c-0.2,-0.3 -0.4,-0.6 -0.7,-0.9l1.9,-1.8c0.5,1.5 0.8,2.7 0.8,3.7l0,4.8l-5.9,0l0,-4.8l4.3,0zm-1.2,7l0.9,-1l1.1,1l-1.1,1.1l-1.1,-0.9l-0.9,0.9l-1.1,-1l1,-1.2l1.2,1.1z" id="svg_42"/>
   <path d="m-214.9,402c-0.2,0.2 -0.5,0.3 -0.9,0.3c-0.3,0.1 -0.8,0.1 -1.4,0.1c-0.3,0 -0.7,0 -1.3,0s-0.9,0 -1.1,0c-0.2,0 -0.5,-0.1 -0.6,-0.2c-0.2,-0.2 -0.3,-0.4 -0.3,-0.7c0,-0.3 -0.1,-0.6 -0.1,-1.1c0,-0.4 0,-0.8 0,-1.2c0,-0.4 0,-0.8 0,-1.4c0,-0.1 0,-0.2 0,-0.2c0,0 0.1,-0.1 0.1,-0.1c0,0 0.1,0 0.2,0.1c0.1,0 0.1,0.1 0.2,0.1c0.3,0.1 0.5,0.1 0.8,0.2c0.3,0 0.6,0.1 0.9,0.1c0.4,0 0.8,0 1.2,-0.1c0.3,0 0.6,-0.1 0.8,-0.2c-0.1,-0.4 -0.3,-0.9 -0.6,-1.4s-0.5,-0.8 -0.6,-0.8l-0.1,0c-0.1,0.1 -0.2,0.2 -0.3,0.2s-0.2,0.1 -0.2,0.1c-0.1,0 -0.2,-0.1 -0.2,-0.3c0,-0.1 0,-0.1 0,-0.2c0.1,-0.4 0.2,-0.6 0.2,-0.6c0.1,-0.2 0.2,-0.4 0.3,-0.6c0.1,-0.2 0.2,-0.4 0.4,-0.5c0.2,-0.2 0.4,-0.4 0.6,-0.4c0.2,0 0.3,0.1 0.5,0.3c0.5,0.6 0.9,1.3 1.2,2.1c0.3,0.7 0.5,1.4 0.5,2.1c0,0.3 0,0.6 0,0.8c0,0.9 0,1.4 0,1.4c0,0.5 0,0.9 -0.1,1.2c0.1,0.4 0.1,0.7 -0.1,0.9z" id="svg_43"/>
   <path d="m-207.8,397.5l0.9,0l0,4.8l-1.1,0c-0.2,0.6 -0.4,1.2 -0.6,1.6c-0.3,0.5 -0.6,0.9 -1,1.2c-0.4,0.3 -1,0.5 -1.5,0.5c-0.1,0 -0.2,0 -0.3,0c-0.1,0 -0.2,0 -0.3,-0.1c-0.3,-0.1 -0.6,-0.2 -1,-0.4c-0.3,-0.2 -0.6,-0.4 -1,-0.6c-0.3,-0.2 -0.6,-0.4 -0.9,-0.6c-0.1,-0.1 -0.2,-0.2 -0.2,-0.3c0,-0.1 0.1,-0.2 0.3,-0.2c0,0 0.1,0 0.1,0s0.1,0 0.2,0c0.2,0 0.4,0.1 0.6,0.1s0.4,0 0.6,0c0.7,0 1.4,-0.1 2,-0.4c0.5,-0.3 1,-0.6 1.3,-1c0.3,-0.4 0.5,-0.8 0.6,-1.2c-0.3,0.4 -0.6,0.8 -0.9,1c-0.3,0.2 -0.6,0.3 -0.9,0.3c-0.6,0 -1.1,-0.3 -1.6,-0.8c-0.5,-0.5 -0.7,-0.9 -0.8,-1.4l0,-0.2c0,-0.6 0.2,-1.4 0.5,-2.5c0.3,-1 0.7,-1.9 1.2,-2.7c0.5,-0.9 1,-1.3 1.5,-1.3c0.5,0 1,0.4 1.4,1.2c0.4,0.9 0.7,1.9 0.9,3zm-3.4,-1.2c0,0.3 0.2,0.6 0.5,0.8c0.4,0.3 0.8,0.4 1.3,0.4l0.1,0c0.1,0 0.2,0 0.3,0c-0.1,-0.5 -0.4,-0.9 -0.7,-1.3c-0.3,-0.3 -0.6,-0.5 -0.9,-0.5c-0.1,0 -0.3,0.1 -0.4,0.2c-0.1,0.1 -0.2,0.3 -0.2,0.4z" id="svg_44"/>
   <path d="m-205.3,396.6c0,-0.1 0,-0.2 0,-0.4c0,-0.1 0,-0.3 0,-0.4c0,-0.2 0,-0.4 0,-0.5c0,-0.1 0.1,-0.2 0.1,-0.2c0.3,-0.3 0.7,-0.5 1.1,-0.7c0.4,-0.2 0.9,-0.2 1.3,-0.2c0.7,0 1.3,0.2 1.9,0.5c0.6,0.3 1.1,0.8 1.4,1.5c0,0.1 0,0.1 0,0.2c0,0 0,0.1 0,0.1s-0.1,0 -0.1,0.1c-0.2,0.1 -0.4,0.2 -0.6,0.4c-0.2,0.2 -0.4,0.4 -0.7,0.7l2.3,0l0,4.8l-1.9,0c-0.8,0 -1.3,-0.1 -1.7,-0.2c-0.3,-0.1 -0.6,-0.4 -0.7,-0.7c-0.1,0.2 -0.2,0.4 -0.4,0.5c-0.2,0.2 -0.6,0.3 -1,0.4l-3.3,0l0,-4.8l3.9,0c-0.2,-0.1 -0.3,-0.3 -0.5,-0.4c-0.2,-0.2 -0.4,-0.3 -0.6,-0.4c0,-0.2 -0.3,-0.3 -0.5,-0.3zm1.8,-0.6c0.2,0.1 0.5,0.3 0.7,0.5c0.1,0.1 0.3,0.3 0.5,0.6c0.1,-0.1 0.3,-0.3 0.5,-0.5c0.2,-0.1 0.3,-0.3 0.4,-0.3c-0.2,-0.1 -0.4,-0.2 -0.6,-0.3c-0.2,-0.1 -0.5,-0.1 -0.7,-0.1c-0.1,0 -0.3,0 -0.4,0c-0.2,0 -0.3,0.1 -0.4,0.1z" id="svg_45"/>
   <path d="m-194.7,396.4c0.1,0.4 0.3,0.7 0.6,0.9c0.3,0.2 0.5,0.3 0.8,0.3c0.2,0 0.5,-0.1 0.7,-0.3c0.3,-0.2 0.5,-0.6 0.6,-1c0,-0.1 0.1,-0.1 0.1,-0.1c0.1,0 0.1,0.1 0.1,0.2c0.1,0.4 0.3,0.7 0.7,1s0.8,0.4 1.2,0.4c-0.1,-0.3 -0.1,-0.5 -0.2,-0.8c-0.1,-0.3 -0.3,-0.6 -0.6,-0.9l1.7,-1.6c0.2,0.5 0.3,0.9 0.4,1c0.1,0.3 0.2,0.6 0.2,1s0.1,0.7 0.1,1l0,4.8l-2.1,0c-0.3,0 -0.5,-0.1 -0.7,-0.2c-0.1,-0.1 -0.3,-0.2 -0.6,-0.4c-0.2,0.2 -0.3,0.3 -0.5,0.4c-0.3,0.1 -0.6,0.2 -1,0.2c-0.3,0 -0.6,0 -0.8,-0.1c-0.3,-0.1 -0.5,-0.2 -0.7,-0.5c-0.2,0.2 -0.3,0.3 -0.4,0.3c-0.2,0.2 -0.5,0.2 -1,0.2l-3.8,0l0,-4.8l3.1,0c0.3,0 0.7,-0.1 0.9,-0.3c0.2,-0.2 0.4,-0.4 0.5,-0.7c0.1,-0.2 0.1,-0.3 0.2,-0.3c0.4,0.1 0.4,0.2 0.5,0.3z" id="svg_46"/>
   <path d="m-183.4,393.7c0,0.7 0,1.6 0.1,2.5c0,0 0,0.8 0.1,2.2c0.1,0.9 0.1,1.6 0.1,2c0,0.2 0,0.6 -0.1,1.2c0,0.3 0,0.5 0,0.7l-5.3,0l0,-4.8l3.6,0l-0.7,-5.4l2.1,-1.7c0,0.5 0,1 0.1,1.4c0.1,0.5 0.3,1 0.5,1.4l-0.5,0.5z" id="svg_47"/>
   <path d="m-179.1,399.2c0,0.2 0,0.5 -0.1,1c-0.1,0.6 -0.2,1 -0.3,1.2c-0.1,0.2 -0.2,0.4 -0.5,0.7c-0.3,0.3 -0.6,0.7 -1,1.1l-0.6,-11.2l2.2,-1.7l0.3,8.9z" id="svg_48"/>
   <path d="m-174.9,401.4c-0.1,-0.7 -0.3,-1.4 -0.4,-2.1c-0.1,-0.7 -0.2,-1.4 -0.2,-2c0,-0.1 0,-0.1 0.1,-0.1c0.2,0.1 0.4,0.2 0.5,0.3c0.1,0.1 0.2,0.1 0.3,0.1c0.1,0 0.1,0 0.2,-0.1c0.2,-0.2 0.4,-0.4 0.5,-0.4c0.2,-0.1 0.3,-0.3 0.5,-0.4l-0.8,-5.2l1.9,-1.3c0,0.5 0.1,0.9 0.2,1.2c0.1,0.4 0.3,0.8 0.6,1.1l-0.5,0.7c0,0.3 0.1,0.5 0.1,0.8s0,0.5 0,0.7c0,0.2 0,0.4 0,0.6c0,0.2 -0.1,0.3 -0.2,0.5c0.3,-0.2 0.7,-0.4 1.1,-0.7c0.5,-0.3 1,-0.5 1.4,-0.7c0.5,-0.2 1,-0.4 1.3,-0.4c0.1,0 0.2,0 0.3,0l0.1,0c0.6,0 1.1,0.2 1.5,0.7c0.3,0.3 0.5,0.8 0.7,1.3c0.1,0.4 0.2,0.7 0.2,0.9c0,0.5 0,1.1 -0.1,1.7c-0.1,0.6 -0.2,1.2 -0.3,1.8c-0.1,0.4 -0.2,1 -0.4,1.7c0,0.1 -0.1,0.1 -0.2,0.2c-0.1,0.1 -0.2,0.1 -0.3,0.1l-6.9,0c-0.4,0 -0.7,-0.1 -0.9,-0.2c0,-0.2 -0.2,-0.4 -0.3,-0.8zm2.8,-3.9l4.4,0c0,-0.4 -0.2,-0.8 -0.4,-1c-0.3,-0.3 -0.6,-0.5 -1,-0.5c-0.4,0 -0.8,0.1 -1.2,0.3c-0.6,0.3 -1.2,0.7 -1.8,1.2z" id="svg_49"/>
   <path d="m-159,397.5l0.9,0l0,4.8l-1.1,0c-0.2,0.6 -0.4,1.2 -0.6,1.6c-0.3,0.5 -0.6,0.9 -1,1.2c-0.4,0.3 -1,0.5 -1.5,0.5c-0.1,0 -0.2,0 -0.3,0c-0.1,0 -0.2,0 -0.3,-0.1c-0.3,-0.1 -0.6,-0.2 -1,-0.4c-0.3,-0.2 -0.6,-0.4 -1,-0.6c-0.3,-0.2 -0.6,-0.4 -0.9,-0.6c-0.2,-0.1 -0.2,-0.2 -0.2,-0.3c0,-0.1 0.1,-0.2 0.3,-0.2c0,0 0.1,0 0.1,0c0,0 0.1,0 0.2,0c0.2,0 0.4,0.1 0.6,0.1s0.4,0 0.6,0c0.7,0 1.4,-0.1 2,-0.4c0.5,-0.3 1,-0.6 1.3,-1c0.3,-0.4 0.5,-0.8 0.6,-1.2c-0.3,0.4 -0.6,0.8 -0.9,1c-0.3,0.2 -0.6,0.3 -0.9,0.3c-0.6,0 -1.1,-0.3 -1.6,-0.8c-0.5,-0.5 -0.7,-0.9 -0.8,-1.4l0,-0.2c0,-0.6 0.2,-1.4 0.5,-2.5c0.3,-1 0.7,-1.9 1.2,-2.7c0.5,-0.9 1,-1.3 1.5,-1.3c0.5,0 1,0.4 1.4,1.2c0.4,0.9 0.7,1.9 0.9,3zm-3.3,-1.2c0,0.3 0.2,0.6 0.5,0.8c0.4,0.3 0.8,0.4 1.3,0.4l0.1,0c0.1,0 0.2,0 0.3,0c-0.1,-0.5 -0.4,-0.9 -0.7,-1.3c-0.3,-0.3 -0.6,-0.5 -0.9,-0.5c-0.1,0 -0.3,0.1 -0.4,0.2c-0.2,0.1 -0.2,0.3 -0.2,0.4z" id="svg_50"/>
   <path d="m-158.7,402.3l0,-4.8l1.5,0c0.1,0 0.3,-0.2 0.6,-0.5c0.1,-0.1 0.2,-0.2 0.4,-0.3l-0.8,-5.2l1.9,-1.3c0,0.4 0.1,0.8 0.2,1.2c0.1,0.4 0.3,0.7 0.6,1.1l-0.4,0.7c0,0.1 0,0.3 0.1,0.5c0.1,0.4 0.1,0.7 0.1,0.9c0,0.2 0,0.4 0,0.5c0,0.2 -0.1,0.3 -0.1,0.5c0.3,-0.2 0.7,-0.4 1.1,-0.7c0.5,-0.3 1,-0.5 1.4,-0.7c0.5,-0.2 0.9,-0.3 1.3,-0.4c0.1,0 0.1,0 0.2,0s0.1,0 0.2,0c0.6,0 1.1,0.2 1.6,0.7c0.3,0.3 0.5,0.8 0.7,1.3c0.1,0.4 0.2,0.7 0.2,0.9c0,0.7 -0.1,1.6 -0.3,2.6c-0.1,0.9 -0.3,1.7 -0.6,2.6c0,0.1 -0.1,0.1 -0.1,0.2c-0.1,0 -0.2,0.1 -0.3,0.1l-9.5,0l0,0.1zm3.8,-4.8l4.4,0c0,-0.4 -0.2,-0.7 -0.4,-1c-0.3,-0.3 -0.6,-0.5 -1.1,-0.5c-0.4,0 -0.8,0.1 -1.2,0.3c-0.5,0.3 -1.1,0.7 -1.7,1.2z" id="svg_51"/>
   <path d="m-138.8,397.5l-0.7,-5.4l2.1,-1.7c0,0.5 0,1 0.1,1.4c0.1,0.5 0.3,1 0.5,1.4l-0.4,0.4c0,0.7 0,1.6 0.1,2.5c0,0 0,0.8 0.1,2.2c0.1,0.9 0.1,1.6 0.1,2c0,0.2 0,0.6 -0.1,1.2c0,0.3 0,0.5 0,0.7l-12.5,0l0,-4.8l6.5,0c-0.3,-0.3 -0.6,-0.5 -0.9,-0.7c-0.4,-0.2 -0.7,-0.4 -1,-0.5c-0.4,-0.1 -0.7,-0.2 -0.9,-0.2c-0.3,0 -0.6,0.1 -0.8,0.4c-0.2,0.2 -0.3,0.3 -0.4,0.3c-0.1,0 -0.1,0 -0.1,-0.1l0,0c0,-0.4 0.1,-0.7 0.2,-1.1c0.1,-0.5 0.3,-0.8 0.5,-1.1c0.3,-0.4 0.6,-0.6 0.9,-0.6c0.1,0 0.1,0 0.2,0s0.1,0 0.2,0l0.1,0c0.7,0 1.3,0.3 1.9,1c0.5,0.6 1,1.2 1.5,1.9c0.6,0.7 1.3,1 2,1c0.1,0 0.2,0 0.3,0c0.1,0 0.3,0 0.4,0c0,-0.1 0.1,-0.1 0.1,-0.2zm-5.2,-6.2l-1.2,1.4l-1.4,-1.2l1.3,-1.3l1.3,1.1z" id="svg_52"/>
   <path d="m-133.1,399.2c0,0.2 0,0.5 -0.1,1c-0.1,0.6 -0.2,1 -0.3,1.2c-0.1,0.2 -0.2,0.4 -0.5,0.7c-0.3,0.3 -0.6,0.7 -1,1.1l-0.6,-11.2l2.2,-1.7l0.3,8.9z" id="svg_53"/>
  </g>
  <text fill="#000000" font-family="Serif" font-size="24" id="svg_54" stroke="#000000" stroke-width="0" text-anchor="middle" transform="matrix(0.857626 0 0 1 -1.4608 0)" x="70.99" xml:space="preserve" y="20.5">الخطوط السعودية</text>
 </g>
</svg>